<?xml version="1.0" standalone="no"?>
<!DOCTYPE svg PUBLIC "-//W3C//DTD SVG 20010904//EN"
 "http://www.w3.org/TR/2001/REC-SVG-20010904/DTD/svg10.dtd">
<svg version="1.0" xmlns="http://www.w3.org/2000/svg"
 width="853.000000pt" height="1280.000000pt" viewBox="0 0 853.000000 1280.000000"
 preserveAspectRatio="xMidYMid meet">
<g transform="translate(0.000000,1280.000000) scale(0.100000,-0.100000)"
fill="#000000" stroke="none">
<path d="M3931 12369 c-5 -13 -15 -59 -20 -103 -6 -43 -13 -82 -16 -86 -3 -4
-42 -11 -87 -15 -809 -67 -1630 -385 -2273 -879 -156 -120 -314 -259 -320
-281 -5 -19 -155 -10409 -155 -10717 l0 -148 310 0 c269 0 310 2 310 15 0 8 9
24 20 35 18 18 33 20 141 20 73 0 129 5 142 12 12 6 64 15 115 19 52 4 99 12
105 18 9 9 13 142 15 484 1 260 4 482 7 495 3 12 10 22 16 22 7 0 10 -148 8
-475 -1 -261 0 -478 3 -480 3 -3 45 -9 94 -14 l89 -8 905 246 905 247 5 1515
c5 1636 2 1544 57 1479 32 -39 79 -41 113 -5 18 19 25 40 28 83 4 52 1 61 -23
90 -36 43 -83 44 -118 2 -14 -16 -31 -31 -39 -32 -11 -3 -14 375 -18 2252 l-5
2254 -814 313 c-448 172 -817 315 -820 318 -2 3 0 9 5 14 15 15 3516 -36 3526
-52 4 -6 8 -82 8 -167 0 -433 71 -8478 75 -8497 9 -41 48 -56 158 -61 56 -2
111 -10 122 -16 12 -7 74 -11 157 -11 l137 0 33 -30 33 -30 305 5 305 5 -3
235 c-6 468 -132 9340 -141 9892 l-8 567 -83 78 c-544 511 -1236 889 -1970
1073 -145 37 -403 85 -507 95 -104 11 -105 12 -89 114 15 92 13 108 -12 115
-10 2 -176 8 -369 11 l-352 7 -10 -23z m-1611 -3311 c3 -170 -2 -842 -6 -853
-4 -8 -10 -15 -15 -15 -10 0 -13 839 -3 864 7 19 24 21 24 4z m-14 -1970 c-3
-293 -9 -847 -12 -1231 -4 -384 -10 -700 -15 -702 -4 -3 -10 -1 -14 5 -7 11
13 2426 20 2448 3 6 10 12 16 12 9 0 10 -128 5 -532z m-26 -2700 c0 -408 -21
-2514 -26 -2527 -23 -68 -24 89 -14 1350 7 739 14 1350 16 1357 2 6 8 12 14
12 6 0 10 -67 10 -192z"/>
<path d="M7775 5364 c-191 -49 -276 -134 -277 -279 -1 -131 85 -237 215 -267
48 -11 176 4 232 28 137 57 199 229 132 367 -45 90 -124 144 -224 152 -32 2
-67 2 -78 -1z"/>
</g>
</svg>
