<?xml version="1.0" standalone="no"?>
<!DOCTYPE svg PUBLIC "-//W3C//DTD SVG 20010904//EN"
 "http://www.w3.org/TR/2001/REC-SVG-20010904/DTD/svg10.dtd">
<svg version="1.0" xmlns="http://www.w3.org/2000/svg"
 width="1129.000000pt" height="1280.000000pt" viewBox="0 0 1129.000000 1280.000000"
 preserveAspectRatio="xMidYMid meet">
<metadata>
Created by potrace 1.15, written by Peter Selinger 2001-2017
</metadata>
<g transform="translate(0.000000,1280.000000) scale(0.100000,-0.100000)"
fill="#000000" stroke="none">
<path d="M5375 10819 c-751 -58 -1425 -331 -1995 -808 -450 -377 -764 -820
-930 -1311 -94 -279 -138 -529 -146 -830 -6 -219 -9 -185 146 -1695 11 -104
42 -415 70 -690 28 -275 69 -675 91 -890 21 -214 69 -694 104 -1065 36 -371
82 -857 104 -1080 25 -264 44 -418 54 -443 l16 -37 53 5 c29 2 178 7 330 11
l278 6 31 54 30 54 2155 0 2154 0 73 -67 73 -68 285 3 286 3 6 87 c6 74 35
445 77 982 5 69 32 415 60 770 28 355 59 760 70 900 11 140 25 311 30 380 5
69 32 415 60 770 28 355 57 731 65 835 86 1093 83 1372 -21 1793 -157 631
-518 1163 -1099 1617 -535 418 -1167 657 -1889 715 -148 12 -460 11 -621 -1z"/>
</g>
</svg>
