<?xml version="1.0" standalone="no"?>
<!DOCTYPE svg PUBLIC "-//W3C//DTD SVG 20010904//EN"
 "http://www.w3.org/TR/2001/REC-SVG-20010904/DTD/svg10.dtd">
<svg version="1.0" xmlns="http://www.w3.org/2000/svg"
 width="709.000000pt" height="1280.000000pt" viewBox="0 0 709.000000 1280.000000"
 preserveAspectRatio="xMidYMid meet">
<g transform="translate(0.000000,1280.000000) scale(0.100000,-0.100000)"
fill="#000000" stroke="none">
<path d="M3320 12580 c-865 -58 -1591 -393 -2209 -1019 -428 -434 -701 -889
-865 -1441 l-46 -155 2 -4980 3 -4980 120 2 c66 2 1360 5 2875 9 2080 5 2869
3 3219 -6 393 -11 465 -11 472 1 5 8 8 2157 6 5014 l-2 5000 -38 118 c-184
572 -449 1001 -891 1443 -290 289 -556 484 -886 650 -449 225 -907 335 -1450
348 -102 3 -241 1 -310 -4z"/>
</g>
</svg>
