<?xml version="1.0" encoding="utf-8"?>
<!-- Generator: Adobe Illustrator 21.0.0, SVG Export Plug-In . SVG Version: 6.00 Build 0)  -->
<svg xmlns="http://www.w3.org/2000/svg" xmlns:xlink="http://www.w3.org/1999/xlink" version="1.1" x="0px" y="0px" viewBox="0 0 410 940" style="enable-background:new 0 0 410 940;" xml:space="preserve">
<style type="text/css">
	.st0{fill:#DCDDDE;}
	.st1{fill:#BCBDC0;}
	.st2{fill:#E6E7E8;}
	.st3{fill:#A7A9AC;}
	.st4{fill:#6D6F71;}
	.st5{fill:#939598;}
	.st6{fill:#B2B4B6;}
	.st7{fill:#C6C8CA;}
	.st8{fill:#808285;}
	.st9{fill:#9D9FA2;}
	.st10{fill:#8A8C8E;}
	.st11{fill:#58595B;}
	.st12{fill:#77787B;}
	.st13{fill:url(#SVGID_1_);}
	.st14{fill:url(#SVGID_2_);}
	.st15{fill:url(#SVGID_3_);}
	.st16{fill:url(#SVGID_4_);}
	.st17{fill:#FFFBCC;mix-blend-mode:multiply;}
	.st18{fill:none;}
	.st19{fill:#FFFFFF;}
</style>
<g id="door_x5F_base">
	<polyline class="st0" points="410,940 0,940 0,0 410,0 410,940  "/>
	<rect x="407" class="st1" width="3" height="940"/>
	<rect class="st2" width="3" height="940"/>
	<rect y="939" transform="matrix(-1 -1.224647e-16 1.224647e-16 -1 410 1878.9972)" class="st3" width="410" height="1"/>
	<rect transform="matrix(-1 -1.224647e-16 1.224647e-16 -1 410 1)" class="st2" width="410" height="1"/>
</g>
<g id="mould">
	<polygon class="st4" points="325.5,51.7 84.9,51.7 88.9,55.7 321.5,55.7  "/>
	<polygon class="st3" points="319.5,57.7 90.9,57.7 88.9,55.7 321.5,55.7  "/>
	<polygon class="st4" points="319.5,57.7 90.9,57.7 93.9,60.7 316.5,60.7  "/>
	<polygon class="st5" points="93.9,60.7 316.5,60.7 314.5,62.7 95.9,62.7  "/>
	<polygon class="st6" points="314.5,62.7 95.9,62.7 99.9,66.7 310.5,66.7  "/>
	<polygon points="325.5,51.7 84.9,51.7 82.9,49.7 327.5,49.7  "/>
	<polygon class="st7" points="106.4,73.2 304,73.2 303,74.2 107.4,74.2  "/>
	<polygon class="st0" points="304,73.2 106.4,73.2 99.9,66.7 310.5,66.7  "/>
	<polygon class="st3" points="84.9,51.7 84.9,516.9 88.9,512.9 88.9,55.7  "/>
	<polygon class="st7" points="90.9,57.7 90.9,510.9 88.9,512.9 88.9,55.7  "/>
	<polygon class="st5" points="90.9,57.7 90.9,510.9 93.9,507.9 93.9,60.7  "/>
	<polygon class="st3" points="93.9,507.9 93.9,60.7 95.9,62.7 95.9,505.9  "/>
	<polygon class="st1" points="95.9,62.7 95.9,505.9 99.9,501.9 99.9,66.7  "/>
	<polygon class="st6" points="84.9,51.7 84.9,516.9 82.9,518.9 82.9,49.7  "/>
	<polygon class="st8" points="106.4,495.4 106.4,73.2 107.4,74.2 107.4,494.4  "/>
	<polygon class="st9" points="106.4,73.2 106.4,495.4 99.9,501.9 99.9,66.7  "/>
	<polygon class="st3" points="84.9,516.9 325.5,516.9 321.5,512.9 88.9,512.9  "/>
	<polygon class="st7" points="90.9,510.9 319.5,510.9 321.5,512.9 88.9,512.9  "/>
	<polygon class="st10" points="90.9,510.9 319.5,510.9 316.5,507.9 93.9,507.9  "/>
	<polygon class="st3" points="316.5,507.9 93.9,507.9 95.9,505.9 314.5,505.9  "/>
	<polygon class="st6" points="95.9,505.9 314.5,505.9 310.5,501.9 99.9,501.9  "/>
	<polygon class="st7" points="84.9,516.9 325.5,516.9 327.5,518.9 82.9,518.9  "/>
	<polygon class="st11" points="304,495.4 106.4,495.4 107.4,494.4 303,494.4  "/>
	<polygon class="st12" points="106.4,495.4 304,495.4 310.5,501.9 99.9,501.9  "/>
	<polygon class="st5" points="325.5,516.9 325.5,51.7 321.5,55.7 321.5,512.9  "/>
	<polygon class="st3" points="319.5,510.9 319.5,57.7 321.5,55.7 321.5,512.9  "/>
	<polygon class="st10" points="319.5,510.9 319.5,57.7 316.5,60.7 316.5,507.9  "/>
	<polygon class="st5" points="316.5,60.7 316.5,507.9 314.5,505.9 314.5,62.7  "/>
	<polygon class="st7" points="314.5,505.9 314.5,62.7 310.5,66.7 310.5,501.9  "/>
	<polygon class="st11" points="325.5,516.9 325.5,51.7 327.5,49.7 327.5,518.9  "/>
	<polygon class="st3" points="304,73.2 304,495.4 303,494.4 303,74.2  "/>
	<polygon class="st1" points="304,495.4 304,73.2 310.5,66.7 310.5,501.9  "/>
	<polygon class="st4" points="182.5,591.7 84.9,591.7 88.9,595.7 178.5,595.7  "/>
	<polygon class="st3" points="176.5,597.7 90.9,597.7 88.9,595.7 178.5,595.7  "/>
	<polygon class="st4" points="176.5,597.7 90.9,597.7 93.9,600.7 173.5,600.7  "/>
	<polygon class="st5" points="93.9,600.7 173.5,600.7 171.5,602.7 95.9,602.7  "/>
	<polygon class="st6" points="171.5,602.7 95.9,602.7 99.9,606.7 167.5,606.7  "/>
	<polygon points="182.5,591.7 84.9,591.7 82.9,589.7 184.5,589.7  "/>
	<polygon class="st7" points="106.4,613.2 161,613.2 160,614.2 107.4,614.2  "/>
	<polygon class="st0" points="161,613.2 106.4,613.2 99.9,606.7 167.5,606.7  "/>
	<polygon class="st3" points="84.9,591.7 84.9,894.4 88.9,890.4 88.9,595.7  "/>
	<polygon class="st7" points="90.9,597.7 90.9,888.4 88.9,890.4 88.9,595.7  "/>
	<polygon class="st5" points="90.9,597.7 90.9,888.4 93.9,885.4 93.9,600.7  "/>
	<polygon class="st1" points="93.9,885.4 93.9,600.7 95.9,602.7 95.9,883.4  "/>
	<polygon class="st1" points="95.9,602.7 95.9,883.4 99.9,879.4 99.9,606.7  "/>
	<polygon class="st6" points="84.9,591.7 84.9,894.4 82.9,896.4 82.9,589.7  "/>
	<polygon class="st8" points="106.4,872.9 106.4,613.2 107.4,614.2 107.4,871.9  "/>
	<polygon class="st9" points="106.4,613.2 106.4,872.9 99.9,879.4 99.9,606.7  "/>
	<polygon class="st3" points="84.9,894.4 182.5,894.4 178.5,890.4 88.9,890.4  "/>
	<polygon class="st7" points="90.9,888.4 176.5,888.4 178.5,890.4 88.9,890.4  "/>
	<polygon class="st10" points="90.9,888.4 176.5,888.4 173.5,885.4 93.9,885.4  "/>
	<polygon class="st3" points="173.5,885.4 93.9,885.4 95.9,883.4 171.5,883.4  "/>
	<polygon class="st6" points="95.9,883.4 171.5,883.4 167.5,879.4 99.9,879.4  "/>
	<polygon class="st7" points="84.9,894.4 182.5,894.4 184.5,896.4 82.9,896.4  "/>
	<polygon class="st11" points="161,872.9 106.4,872.9 107.4,871.9 160,871.9  "/>
	<polygon class="st12" points="106.4,872.9 161,872.9 167.5,879.4 99.9,879.4  "/>
	<polygon class="st5" points="182.5,894.4 182.5,591.7 178.5,595.7 178.5,890.4  "/>
	<polygon class="st3" points="176.5,888.4 176.5,597.7 178.5,595.7 178.5,890.4  "/>
	<polygon class="st10" points="176.5,888.4 176.5,597.7 173.5,600.7 173.5,885.4  "/>
	<polygon class="st5" points="173.5,600.7 173.5,885.4 171.5,883.4 171.5,602.7  "/>
	<polygon class="st6" points="171.5,883.4 171.5,602.7 167.5,606.7 167.5,879.4  "/>
	<polygon class="st11" points="182.5,894.4 182.5,591.7 184.5,589.7 184.5,896.4  "/>
	<polygon class="st1" points="161,613.2 161,872.9 160,871.9 160,614.2  "/>
	<polygon class="st1" points="161,872.9 161,613.2 167.5,606.7 167.5,879.4  "/>
	<polygon class="st4" points="325.5,591.7 228,591.7 231.9,595.7 321.5,595.7  "/>
	<polygon class="st3" points="319.5,597.7 234,597.7 231.9,595.7 321.5,595.7  "/>
	<polygon class="st4" points="319.5,597.7 234,597.7 237,600.7 316.5,600.7  "/>
	<polygon class="st5" points="237,600.7 316.5,600.7 314.5,602.7 239,602.7  "/>
	<polygon class="st6" points="314.5,602.7 239,602.7 243,606.7 310.5,606.7  "/>
	<polygon points="325.5,591.7 228,591.7 226,589.7 327.5,589.7  "/>
	<polygon class="st7" points="249.4,613.2 304,613.2 303,614.2 250.5,614.2  "/>
	<polygon class="st0" points="304,613.2 249.4,613.2 243,606.7 310.5,606.7  "/>
	<polygon class="st3" points="228,591.7 228,894.4 231.9,890.4 231.9,595.7  "/>
	<polygon class="st7" points="234,597.7 234,888.4 231.9,890.4 231.9,595.7  "/>
	<polygon class="st5" points="234,597.7 234,888.4 237,885.4 237,600.7  "/>
	<polygon class="st3" points="237,885.4 237,600.7 239,602.7 239,883.4  "/>
	<polygon class="st1" points="239,602.7 239,883.4 243,879.4 243,606.7  "/>
	<polygon class="st6" points="228,591.7 228,894.4 226,896.4 226,589.7  "/>
	<polygon class="st8" points="249.5,872.9 249.5,613.2 250.5,614.2 250.5,871.9  "/>
	<polygon class="st9" points="249.5,613.2 249.5,872.9 243,879.4 243,606.7  "/>
	<polygon class="st3" points="228,894.4 325.5,894.4 321.5,890.4 231.9,890.4  "/>
	<polygon class="st7" points="234,888.4 319.5,888.4 321.5,890.4 231.9,890.4  "/>
	<polygon class="st10" points="234,888.4 319.5,888.4 316.5,885.4 237,885.4  "/>
	<polygon class="st3" points="316.5,885.4 237,885.4 239,883.4 314.5,883.4  "/>
	<polygon class="st6" points="239,883.4 314.5,883.4 310.5,879.4 243,879.4  "/>
	<polygon class="st7" points="228,894.4 325.5,894.4 327.5,896.4 226,896.4  "/>
	<polygon class="st11" points="304,872.9 249.4,872.9 250.4,871.9 303,871.9  "/>
	<polygon class="st12" points="249.4,872.9 304,872.9 310.5,879.4 243,879.4  "/>
	<polygon class="st5" points="325.5,894.4 325.5,591.7 321.5,595.7 321.5,890.4  "/>
	<polygon class="st3" points="319.5,888.4 319.5,597.7 321.5,595.7 321.5,890.4  "/>
	<polygon class="st10" points="319.5,888.4 319.5,597.7 316.5,600.7 316.5,885.4  "/>
	<polygon class="st5" points="316.5,600.7 316.5,885.4 314.5,883.4 314.5,602.7  "/>
	<polygon class="st6" points="314.5,883.4 314.5,602.7 310.5,606.7 310.5,879.4  "/>
	<polygon class="st11" points="325.5,894.4 325.5,591.7 327.5,589.7 327.5,896.4  "/>
	<polygon class="st1" points="304,613.2 304,872.9 303,871.9 303,614.2  "/>
	<polygon class="st1" points="304,872.9 304,613.2 310.5,606.7 310.5,879.4  "/>
	<path class="st6" d="M91.2,53.4"/>
</g>
<g id="joins">
	<rect x="81.9" y="896.4" class="st9" width="1" height="41.8"/>
	<rect x="327.4" y="896.4" class="st9" width="1" height="41.8"/>
	<rect x="81.9" y="518.9" class="st9" width="1" height="70.7"/>
	<rect x="327.4" y="518.9" class="st9" width="1" height="70.7"/>
	<rect x="81.9" y="1.1" class="st9" width="1" height="49.5"/>
	<rect x="327.4" y="1.1" class="st9" width="1" height="49.5"/>
	
		<rect x="204.7" y="568.4" transform="matrix(6.123234e-17 -1 1 6.123234e-17 -383.9578 794.3669)" class="st9" width="1" height="41.5"/>
	
		<rect x="204.7" y="876.2" transform="matrix(6.123234e-17 -1 1 6.123234e-17 -691.7347 1102.1439)" class="st9" width="1" height="41.5"/>
</g>
<g id="main_x5F_gradient">
	<linearGradient id="SVGID_1_" gradientUnits="userSpaceOnUse" x1="556.7283" y1="765.1343" x2="-146.7283" y2="174.8641">
		<stop offset="0.1314" style="stop-color:#000000;stop-opacity:0.4"/>
		<stop offset="0.1359" style="stop-color:#040404;stop-opacity:0.4007"/>
		<stop offset="0.2085" style="stop-color:#3E3E3E;stop-opacity:0.4127"/>
		<stop offset="0.2831" style="stop-color:#717171;stop-opacity:0.4249"/>
		<stop offset="0.3577" style="stop-color:#9D9D9D;stop-opacity:0.4372"/>
		<stop offset="0.4327" style="stop-color:#C0C0C0;stop-opacity:0.4496"/>
		<stop offset="0.508" style="stop-color:#DCDCDC;stop-opacity:0.462"/>
		<stop offset="0.5838" style="stop-color:#EFEFEF;stop-opacity:0.4744"/>
		<stop offset="0.6604" style="stop-color:#FBFBFB;stop-opacity:0.487"/>
		<stop offset="0.7393" style="stop-color:#FFFFFF;stop-opacity:0.5"/>
	</linearGradient>
	<polyline class="st13" points="410,940 0,940 0,0 410,0 410,940  "/>
</g>
<g id="highlights">
	<linearGradient id="SVGID_2_" gradientUnits="userSpaceOnUse" x1="205.2046" y1="73.1652" x2="205.2046" y2="66.6652">
		<stop offset="0.2607" style="stop-color:#FFFFFF;stop-opacity:0.5"/>
		<stop offset="0.8587" style="stop-color:#FFFFFF;stop-opacity:8.149952e-03"/>
		<stop offset="0.8686" style="stop-color:#FFFFFF;stop-opacity:0"/>
	</linearGradient>
	<polygon class="st14" points="304,73.2 106.4,73.2 99.9,66.7 310.5,66.7  "/>
	<linearGradient id="SVGID_3_" gradientUnits="userSpaceOnUse" x1="133.7016" y1="613.1624" x2="133.7016" y2="606.6624">
		<stop offset="0.2607" style="stop-color:#FFFFFF;stop-opacity:0.5"/>
		<stop offset="0.8587" style="stop-color:#FFFFFF;stop-opacity:8.149952e-03"/>
		<stop offset="0.8686" style="stop-color:#FFFFFF;stop-opacity:0"/>
	</linearGradient>
	<polygon class="st15" points="161,613.2 106.4,613.2 99.9,606.7 167.5,606.7  "/>
	<linearGradient id="SVGID_4_" gradientUnits="userSpaceOnUse" x1="276.7075" y1="613.1624" x2="276.7075" y2="606.6624">
		<stop offset="0.2607" style="stop-color:#FFFFFF;stop-opacity:0.5"/>
		<stop offset="0.8587" style="stop-color:#FFFFFF;stop-opacity:8.149952e-03"/>
		<stop offset="0.8686" style="stop-color:#FFFFFF;stop-opacity:0"/>
	</linearGradient>
	<polygon class="st16" points="304,613.2 249.4,613.2 243,606.7 310.5,606.7  "/>
</g>
<g id="base_x5F_colour">
	<polyline class="st17" points="410,940 0,940 0,0 410,0 410,940  " style="fill:#ffffff;mix-blend-mode:multiply"/>
</g>
<g id="glass_x5F_location">
</g>
<g id="right_x5F_handle_x5F_location">
	<rect x="331.1" y="203" class="st18" width="64" height="615"/>
</g>
<g id="left_x5F_handle_x5F_location">
	<rect x="15.2" y="203" class="st18" width="64" height="615"/>
</g>
<g id="lock_x5F_location">
	<rect x="367.9" y="322.1" class="st18" width="25" height="40"/>
</g>
<g id="letterbox_x5F_location">
	<rect x="142.4" y="537.6" class="st18" width="126" height="30"/>
</g>
<g id="glass_x5F_4">
</g>
<g id="glass_x5F_3">
</g>
<g id="glass_x5F_2">
</g>
<g id="glass_x5F_1">
	<rect x="95.9" y="62.7" class="st19" width="218.5" height="443.3"/>
</g>

</svg>
