<?xml version="1.0" encoding="utf-8"?>
<!-- Generator: Adobe Illustrator 21.0.0, SVG Export Plug-In . SVG Version: 6.00 Build 0)  -->
<svg xmlns="http://www.w3.org/2000/svg" xmlns:xlink="http://www.w3.org/1999/xlink" version="1.1" x="0px" y="0px" viewBox="0 0 410 940" style="enable-background:new 0 0 410 940;" xml:space="preserve">
<style type="text/css">
	.st0{fill:#DCDDDE;}
	.st1{fill:#BCBDC0;}
	.st2{fill:#E6E7E8;}
	.st3{fill:#A7A9AC;}
	.st4{fill:#6D6F71;}
	.st5{fill:#939598;}
	.st6{fill:#B2B4B6;}
	.st7{fill:#C6C8CA;}
	.st8{fill:#8A8C8E;}
	.st9{fill:#58595B;}
	.st10{fill:#77787B;}
	.st11{fill:#808285;}
	.st12{fill:#9D9FA2;}
	.st13{fill:url(#SVGID_1_);}
	.st14{fill:url(#SVGID_2_);}
	.st15{fill:url(#SVGID_3_);}
	.st16{fill:url(#SVGID_4_);}
	.st17{fill:url(#SVGID_5_);}
	.st18{fill:url(#SVGID_6_);}
	.st19{fill:#FFFBCC;mix-blend-mode:multiply;}
	.st20{fill:none;}
	.st21{fill:#FFFFFF;}
</style>
<g id="door_x5F_base">
	<polyline class="st0" points="410,940 0,940 0,0 410,0 410,940  "/>
	<rect x="407" class="st1" width="3" height="940"/>
	<rect class="st2" width="3" height="940"/>
	<rect y="939" transform="matrix(-1 -1.224647e-16 1.224647e-16 -1 410 1878.9972)" class="st3" width="410" height="1"/>
	<rect transform="matrix(-1 -1.224647e-16 1.224647e-16 -1 410 1)" class="st2" width="410" height="1"/>
</g>
<g id="mould">
	<path class="st4" d="M84.9,154.6c0,0,15.3-104.5,120.2-104.5s120.3,104.5,120.3,104.5l-4-4c0,0-18.7-97.8-116.3-97.8   S88.9,150.6,88.9,150.6L84.9,154.6z"/>
	<polygon class="st4" points="182.5,229 84.9,229 88.9,233 178.5,233  "/>
	<polygon class="st3" points="176.5,235 90.9,235 88.9,233 178.5,233  "/>
	<polygon class="st4" points="176.5,235 90.9,235 93.9,238 173.5,238  "/>
	<polygon class="st5" points="93.9,238 173.5,238 171.5,240 95.9,240  "/>
	<polygon class="st6" points="171.5,240 95.9,240 99.9,244 167.5,244  "/>
	<polygon points="182.5,229 84.9,229 82.9,227 184.5,227  "/>
	<polygon class="st7" points="106.4,250.5 161,250.5 160,251.5 107.4,251.5  "/>
	<polygon class="st0" points="161,250.5 106.4,250.5 99.9,244 167.5,244  "/>
	<polygon class="st3" points="84.9,154.6 325.5,154.6 321.5,150.6 88.9,150.6  "/>
	<polygon class="st7" points="90.9,148.6 319.5,148.6 321.5,150.6 88.9,150.6  "/>
	<polygon class="st8" points="90.9,148.6 319.5,148.6 316.5,145.6 93.9,145.6  "/>
	<polygon class="st3" points="316.5,145.6 93.9,145.6 95.9,143.6 314.5,143.6  "/>
	<polygon class="st6" points="95.9,143.6 314.5,143.6 310.5,139.6 99.9,139.6  "/>
	<polygon class="st7" points="84.9,154.6 325.5,154.6 327.5,156.6 82.9,156.6  "/>
	<polygon class="st9" points="304,133.1 106.4,133.1 107.4,132.1 302.9,132.1  "/>
	<polygon class="st10" points="106.4,133.1 304,133.1 310.5,139.6 99.9,139.6  "/>
	<polygon class="st4" points="325.5,229 228,229 231.9,233 321.5,233  "/>
	<polygon class="st3" points="319.5,235 234,235 231.9,233 321.5,233  "/>
	<polygon class="st4" points="319.5,235 234,235 237,238 316.5,238  "/>
	<polygon class="st5" points="237,238 316.5,238 314.5,240 239,240  "/>
	<polygon class="st6" points="314.5,240 239,240 243,244 310.5,244  "/>
	<polygon points="325.5,229 228,229 226,227 327.5,227  "/>
	<polygon class="st7" points="249.4,250.5 304,250.5 303,251.5 250.5,251.5  "/>
	<polygon class="st0" points="304,250.5 249.4,250.5 243,244 310.5,244  "/>
	<polygon class="st3" points="84.9,229 84.9,516.9 88.9,512.9 88.9,233  "/>
	<polygon class="st7" points="90.9,235 90.9,510.9 88.9,512.9 88.9,233  "/>
	<polygon class="st5" points="90.9,235 90.9,510.9 93.9,507.9 93.9,238  "/>
	<polygon class="st3" points="93.9,507.9 93.9,238 95.9,240 95.9,505.9  "/>
	<polygon class="st1" points="95.9,240 95.9,505.9 99.9,501.9 99.9,244  "/>
	<polygon class="st6" points="84.9,229 84.9,516.9 82.9,518.9 82.9,227  "/>
	<polygon class="st11" points="106.4,495.4 106.4,250.5 107.4,251.5 107.4,494.4  "/>
	<polygon class="st12" points="106.4,250.5 106.4,495.4 99.9,501.9 99.9,244  "/>
	<polygon class="st3" points="84.9,516.9 182.5,516.9 178.5,512.9 88.9,512.9  "/>
	<polygon class="st7" points="90.9,510.9 176.5,510.9 178.5,512.9 88.9,512.9  "/>
	<polygon class="st8" points="90.9,510.9 176.5,510.9 173.5,507.9 93.9,507.9  "/>
	<polygon class="st3" points="173.5,507.9 93.9,507.9 95.9,505.9 171.5,505.9  "/>
	<polygon class="st6" points="95.9,505.9 171.5,505.9 167.5,501.9 99.9,501.9  "/>
	<polygon class="st7" points="84.9,516.9 182.5,516.9 184.5,518.9 82.9,518.9  "/>
	<polygon class="st9" points="161,495.4 106.4,495.4 107.4,494.4 160,494.4  "/>
	<polygon class="st10" points="106.4,495.4 161,495.4 167.5,501.9 99.9,501.9  "/>
	<polygon class="st5" points="182.5,516.9 182.5,229 178.5,233 178.5,512.9  "/>
	<polygon class="st3" points="176.5,510.9 176.5,235 178.5,233 178.5,512.9  "/>
	<polygon class="st8" points="176.5,510.9 176.5,235 173.5,238 173.5,507.9  "/>
	<polygon class="st5" points="173.5,238 173.5,507.9 171.5,505.9 171.5,240  "/>
	<polygon class="st7" points="171.5,505.9 171.5,240 167.5,244 167.5,501.9  "/>
	<polygon class="st9" points="182.5,516.9 182.5,229 184.5,227 184.5,518.9  "/>
	<polygon class="st3" points="161,250.5 161,495.4 160,494.4 160,251.5  "/>
	<polygon class="st1" points="161,495.4 161,250.5 167.5,244 167.5,501.9  "/>
	<polygon class="st3" points="228,229 228,516.9 231.9,512.9 231.9,233  "/>
	<polygon class="st7" points="234,235 234,510.9 231.9,512.9 231.9,233  "/>
	<polygon class="st5" points="234,235 234,510.9 237,507.9 237,238  "/>
	<polygon class="st3" points="237,507.9 237,238 239,240 239,505.9  "/>
	<polygon class="st1" points="239,240 239,505.9 243,501.9 243,244  "/>
	<polygon class="st6" points="228,229 228,516.9 226,518.9 226,227  "/>
	<polygon class="st11" points="249.5,495.4 249.5,250.5 250.5,251.5 250.5,494.4  "/>
	<polygon class="st12" points="249.5,250.5 249.5,495.4 243,501.9 243,244  "/>
	<polygon class="st3" points="228,516.9 325.5,516.9 321.5,512.9 231.9,512.9  "/>
	<polygon class="st7" points="234,510.9 319.5,510.9 321.5,512.9 231.9,512.9  "/>
	<polygon class="st8" points="234,510.9 319.5,510.9 316.5,507.9 237,507.9  "/>
	<polygon class="st3" points="316.5,507.9 237,507.9 239,505.9 314.5,505.9  "/>
	<polygon class="st6" points="239,505.9 314.5,505.9 310.5,501.9 243,501.9  "/>
	<polygon class="st7" points="228,516.9 325.5,516.9 327.5,518.9 226,518.9  "/>
	<polygon class="st9" points="304,495.4 249.4,495.4 250.4,494.4 303,494.4  "/>
	<polygon class="st10" points="249.4,495.4 304,495.4 310.5,501.9 243,501.9  "/>
	<polygon class="st5" points="325.5,516.9 325.5,229 321.5,233 321.5,512.9  "/>
	<polygon class="st3" points="319.5,510.9 319.5,235 321.5,233 321.5,512.9  "/>
	<polygon class="st8" points="319.5,510.9 319.5,235 316.5,238 316.5,507.9  "/>
	<polygon class="st5" points="316.5,238 316.5,507.9 314.5,505.9 314.5,240  "/>
	<polygon class="st7" points="314.5,505.9 314.5,240 310.5,244 310.5,501.9  "/>
	<polygon class="st9" points="325.5,516.9 325.5,229 327.5,227 327.5,518.9  "/>
	<polygon class="st3" points="304,250.5 304,495.4 303,494.4 303,251.5  "/>
	<polygon class="st1" points="304,495.4 304,250.5 310.5,244 310.5,501.9  "/>
	<polygon class="st4" points="182.5,591.7 84.9,591.7 88.9,595.7 178.5,595.7  "/>
	<polygon class="st3" points="176.5,597.7 90.9,597.7 88.9,595.7 178.5,595.7  "/>
	<polygon class="st4" points="176.5,597.7 90.9,597.7 93.9,600.7 173.5,600.7  "/>
	<polygon class="st5" points="93.9,600.7 173.5,600.7 171.5,602.7 95.9,602.7  "/>
	<polygon class="st6" points="171.5,602.7 95.9,602.7 99.9,606.7 167.5,606.7  "/>
	<polygon points="182.5,591.7 84.9,591.7 82.9,589.7 184.5,589.7  "/>
	<polygon class="st7" points="106.4,613.2 161,613.2 160,614.2 107.4,614.2  "/>
	<polygon class="st0" points="161,613.2 106.4,613.2 99.9,606.7 167.5,606.7  "/>
	<polygon class="st3" points="84.9,591.7 84.9,894.4 88.9,890.4 88.9,595.7  "/>
	<polygon class="st7" points="90.9,597.7 90.9,888.4 88.9,890.4 88.9,595.7  "/>
	<polygon class="st5" points="90.9,597.7 90.9,888.4 93.9,885.4 93.9,600.7  "/>
	<polygon class="st1" points="93.9,885.4 93.9,600.7 95.9,602.7 95.9,883.4  "/>
	<polygon class="st1" points="95.9,602.7 95.9,883.4 99.9,879.4 99.9,606.7  "/>
	<polygon class="st6" points="84.9,591.7 84.9,894.4 82.9,896.4 82.9,589.7  "/>
	<polygon class="st11" points="106.4,872.9 106.4,613.2 107.4,614.2 107.4,871.9  "/>
	<polygon class="st12" points="106.4,613.2 106.4,872.9 99.9,879.4 99.9,606.7  "/>
	<polygon class="st3" points="84.9,894.4 182.5,894.4 178.5,890.4 88.9,890.4  "/>
	<polygon class="st7" points="90.9,888.4 176.5,888.4 178.5,890.4 88.9,890.4  "/>
	<polygon class="st8" points="90.9,888.4 176.5,888.4 173.5,885.4 93.9,885.4  "/>
	<polygon class="st3" points="173.5,885.4 93.9,885.4 95.9,883.4 171.5,883.4  "/>
	<polygon class="st6" points="95.9,883.4 171.5,883.4 167.5,879.4 99.9,879.4  "/>
	<polygon class="st7" points="84.9,894.4 182.5,894.4 184.5,896.4 82.9,896.4  "/>
	<polygon class="st9" points="161,872.9 106.4,872.9 107.4,871.9 160,871.9  "/>
	<polygon class="st10" points="106.4,872.9 161,872.9 167.5,879.4 99.9,879.4  "/>
	<polygon class="st5" points="182.5,894.4 182.5,591.7 178.5,595.7 178.5,890.4  "/>
	<polygon class="st3" points="176.5,888.4 176.5,597.7 178.5,595.7 178.5,890.4  "/>
	<polygon class="st8" points="176.5,888.4 176.5,597.7 173.5,600.7 173.5,885.4  "/>
	<polygon class="st5" points="173.5,600.7 173.5,885.4 171.5,883.4 171.5,602.7  "/>
	<polygon class="st6" points="171.5,883.4 171.5,602.7 167.5,606.7 167.5,879.4  "/>
	<polygon class="st9" points="182.5,894.4 182.5,591.7 184.5,589.7 184.5,896.4  "/>
	<polygon class="st1" points="161,613.2 161,872.9 160,871.9 160,614.2  "/>
	<polygon class="st1" points="161,872.9 161,613.2 167.5,606.7 167.5,879.4  "/>
	<polygon class="st4" points="325.5,591.7 228,591.7 231.9,595.7 321.5,595.7  "/>
	<polygon class="st3" points="319.5,597.7 234,597.7 231.9,595.7 321.5,595.7  "/>
	<polygon class="st4" points="319.5,597.7 234,597.7 237,600.7 316.5,600.7  "/>
	<polygon class="st5" points="237,600.7 316.5,600.7 314.5,602.7 239,602.7  "/>
	<polygon class="st6" points="314.5,602.7 239,602.7 243,606.7 310.5,606.7  "/>
	<polygon points="325.5,591.7 228,591.7 226,589.7 327.5,589.7  "/>
	<polygon class="st7" points="249.4,613.2 304,613.2 303,614.2 250.5,614.2  "/>
	<polygon class="st0" points="304,613.2 249.4,613.2 243,606.7 310.5,606.7  "/>
	<polygon class="st3" points="228,591.7 228,894.4 231.9,890.4 231.9,595.7  "/>
	<polygon class="st7" points="234,597.7 234,888.4 231.9,890.4 231.9,595.7  "/>
	<polygon class="st5" points="234,597.7 234,888.4 237,885.4 237,600.7  "/>
	<polygon class="st3" points="237,885.4 237,600.7 239,602.7 239,883.4  "/>
	<polygon class="st1" points="239,602.7 239,883.4 243,879.4 243,606.7  "/>
	<polygon class="st6" points="228,591.7 228,894.4 226,896.4 226,589.7  "/>
	<polygon class="st11" points="249.5,872.9 249.5,613.2 250.5,614.2 250.5,871.9  "/>
	<polygon class="st12" points="249.5,613.2 249.5,872.9 243,879.4 243,606.7  "/>
	<polygon class="st3" points="228,894.4 325.5,894.4 321.5,890.4 231.9,890.4  "/>
	<polygon class="st7" points="234,888.4 319.5,888.4 321.5,890.4 231.9,890.4  "/>
	<polygon class="st8" points="234,888.4 319.5,888.4 316.5,885.4 237,885.4  "/>
	<polygon class="st3" points="316.5,885.4 237,885.4 239,883.4 314.5,883.4  "/>
	<polygon class="st6" points="239,883.4 314.5,883.4 310.5,879.4 243,879.4  "/>
	<polygon class="st7" points="228,894.4 325.5,894.4 327.5,896.4 226,896.4  "/>
	<polygon class="st9" points="304,872.9 249.4,872.9 250.4,871.9 303,871.9  "/>
	<polygon class="st10" points="249.4,872.9 304,872.9 310.5,879.4 243,879.4  "/>
	<polygon class="st5" points="325.5,894.4 325.5,591.7 321.5,595.7 321.5,890.4  "/>
	<polygon class="st3" points="319.5,888.4 319.5,597.7 321.5,595.7 321.5,890.4  "/>
	<polygon class="st8" points="319.5,888.4 319.5,597.7 316.5,600.7 316.5,885.4  "/>
	<polygon class="st5" points="316.5,600.7 316.5,885.4 314.5,883.4 314.5,602.7  "/>
	<polygon class="st6" points="314.5,883.4 314.5,602.7 310.5,606.7 310.5,879.4  "/>
	<polygon class="st9" points="325.5,894.4 325.5,591.7 327.5,589.7 327.5,896.4  "/>
	<polygon class="st1" points="304,613.2 304,872.9 303,871.9 303,614.2  "/>
	<polygon class="st1" points="304,872.9 304,613.2 310.5,606.7 310.5,879.4  "/>
	<path d="M84.9,154.6c0,0,15.3-104.5,120.2-104.5s120.3,104.5,120.3,104.5l2,2c0,0-13.9-107.7-122.3-107.7S82.9,156.6,82.9,156.6   L84.9,154.6z"/>
	<path class="st6" d="M91.2,49.6"/>
	<path class="st3" d="M90.9,148.6c0,0,19.4-94.7,114.2-94.7s114.3,94.7,114.3,94.7l2,2c0,0-18.7-97.8-116.3-97.8   S88.9,150.6,88.9,150.6L90.9,148.6z"/>
	<path class="st4" d="M90.9,148.6c0,0,19.4-94.7,114.2-94.7s114.3,94.7,114.3,94.7l-3-3c0,0-21.2-89.5-111.3-89.5   S93.9,145.6,93.9,145.6L90.9,148.6z"/>
	<path class="st5" d="M95.9,143.6c0,0,21.8-86.2,109.2-86.2s109.3,86.2,109.3,86.2l2,2c0,0-21.2-89.5-111.3-89.5   S93.9,145.6,93.9,145.6L95.9,143.6z"/>
	<path class="st6" d="M95.9,143.6c0,0,21.8-86.2,109.2-86.2s109.3,86.2,109.3,86.2l-4-4c0,0-23.5-79.9-105.3-79.9   S99.9,139.6,99.9,139.6L95.9,143.6z"/>
	<path class="st0" d="M106.4,133.1c0,0,24-70.2,98.7-70.2s98.8,70.2,98.8,70.2l6.5,6.5c0,0-23.5-79.9-105.3-79.9   S99.9,139.6,99.9,139.6L106.4,133.1z"/>
	<path class="st7" d="M106.4,133.1c0,0,24-70.2,98.7-70.2s98.8,70.2,98.8,70.2l-1-1c0,0-24.6-68.6-97.8-68.6s-97.7,68.6-97.7,68.6   L106.4,133.1z"/>
	<line class="st6" x1="310.5" y1="139.6" x2="99.9" y2="139.6"/>
</g>
<g id="joins">
	<rect x="81.9" y="156.6" class="st12" width="1" height="71.3"/>
	<rect x="327.4" y="156.6" class="st12" width="1" height="71.3"/>
	<rect x="81.9" y="1.9" class="st12" width="1" height="143.6"/>
	<rect x="327.4" y="1.9" class="st12" width="1" height="143.6"/>
	<rect x="81.9" y="896.4" class="st12" width="1" height="41.8"/>
	<rect x="327.4" y="896.4" class="st12" width="1" height="41.8"/>
	<rect x="81.9" y="518.9" class="st12" width="1" height="70.8"/>
	<rect x="327.4" y="518.9" class="st12" width="1" height="70.8"/>
	
		<rect x="204.7" y="498.6" transform="matrix(6.123234e-17 -1 1 6.123234e-17 -314.1795 724.5887)" class="st12" width="1" height="41.5"/>
	
		<rect x="204.7" y="205.7" transform="matrix(6.123234e-17 -1 1 6.123234e-17 -21.2689 431.6781)" class="st12" width="1" height="41.5"/>
	
		<rect x="204.7" y="568.4" transform="matrix(6.123234e-17 -1 1 6.123234e-17 -383.9594 794.3685)" class="st12" width="1" height="41.5"/>
	
		<rect x="204.7" y="876.2" transform="matrix(6.123234e-17 -1 1 6.123234e-17 -691.7214 1102.1306)" class="st12" width="1" height="41.5"/>
</g>
<g id="main_x5F_gradient">
	<linearGradient id="SVGID_1_" gradientUnits="userSpaceOnUse" x1="556.7283" y1="765.1343" x2="-146.7283" y2="174.8641">
		<stop offset="0.1314" style="stop-color:#000000;stop-opacity:0.4"/>
		<stop offset="0.1359" style="stop-color:#040404;stop-opacity:0.4007"/>
		<stop offset="0.2085" style="stop-color:#3E3E3E;stop-opacity:0.4127"/>
		<stop offset="0.2831" style="stop-color:#717171;stop-opacity:0.4249"/>
		<stop offset="0.3577" style="stop-color:#9D9D9D;stop-opacity:0.4372"/>
		<stop offset="0.4327" style="stop-color:#C0C0C0;stop-opacity:0.4496"/>
		<stop offset="0.508" style="stop-color:#DCDCDC;stop-opacity:0.462"/>
		<stop offset="0.5838" style="stop-color:#EFEFEF;stop-opacity:0.4744"/>
		<stop offset="0.6604" style="stop-color:#FBFBFB;stop-opacity:0.487"/>
		<stop offset="0.7393" style="stop-color:#FFFFFF;stop-opacity:0.5"/>
	</linearGradient>
	<polyline class="st13" points="410,940 0,940 0,0 410,0 410,940  "/>
</g>
<g id="highlights">
	<linearGradient id="SVGID_2_" gradientUnits="userSpaceOnUse" x1="133.7016" y1="250.4735" x2="133.7016" y2="243.9735">
		<stop offset="0.2607" style="stop-color:#FFFFFF;stop-opacity:0.5"/>
		<stop offset="0.8587" style="stop-color:#FFFFFF;stop-opacity:8.149952e-03"/>
		<stop offset="0.8686" style="stop-color:#FFFFFF;stop-opacity:0"/>
	</linearGradient>
	<polygon class="st14" points="161,250.5 106.4,250.5 99.9,244 167.5,244  "/>
	<linearGradient id="SVGID_3_" gradientUnits="userSpaceOnUse" x1="276.7075" y1="250.4735" x2="276.7075" y2="243.9735">
		<stop offset="0.2607" style="stop-color:#FFFFFF;stop-opacity:0.5"/>
		<stop offset="0.8587" style="stop-color:#FFFFFF;stop-opacity:8.149952e-03"/>
		<stop offset="0.8686" style="stop-color:#FFFFFF;stop-opacity:0"/>
	</linearGradient>
	<polygon class="st15" points="304,250.5 249.4,250.5 243,244 310.5,244  "/>
	<linearGradient id="SVGID_4_" gradientUnits="userSpaceOnUse" x1="133.7016" y1="613.1639" x2="133.7016" y2="606.6639">
		<stop offset="0.2607" style="stop-color:#FFFFFF;stop-opacity:0.5"/>
		<stop offset="0.8587" style="stop-color:#FFFFFF;stop-opacity:8.149952e-03"/>
		<stop offset="0.8686" style="stop-color:#FFFFFF;stop-opacity:0"/>
	</linearGradient>
	<polygon class="st16" points="161,613.2 106.4,613.2 99.9,606.7 167.5,606.7  "/>
	<linearGradient id="SVGID_5_" gradientUnits="userSpaceOnUse" x1="276.7075" y1="613.1639" x2="276.7075" y2="606.6639">
		<stop offset="0.2607" style="stop-color:#FFFFFF;stop-opacity:0.5"/>
		<stop offset="0.8587" style="stop-color:#FFFFFF;stop-opacity:8.149952e-03"/>
		<stop offset="0.8686" style="stop-color:#FFFFFF;stop-opacity:0"/>
	</linearGradient>
	<polygon class="st17" points="304,613.2 249.4,613.2 243,606.7 310.5,606.7  "/>
	<linearGradient id="SVGID_6_" gradientUnits="userSpaceOnUse" x1="205.1979" y1="139.552" x2="205.1979" y2="59.7019">
		<stop offset="0.2607" style="stop-color:#FFFFFF;stop-opacity:0.5"/>
		<stop offset="0.8587" style="stop-color:#FFFFFF;stop-opacity:8.149952e-03"/>
		<stop offset="0.8686" style="stop-color:#FFFFFF;stop-opacity:0"/>
	</linearGradient>
	<path class="st18" d="M106.4,133.1c0,0,24-70.2,98.7-70.2s98.8,70.2,98.8,70.2l6.5,6.5c0,0-23.5-79.9-105.3-79.9   S99.9,139.6,99.9,139.6L106.4,133.1z"/>
</g>
<g id="base_x5F_colour">
	<polyline class="st19" points="410,940 0,940 0,0 410,0 410,940  " style="fill:#ffffff;mix-blend-mode:multiply"/>
</g>
<g id="glass_x5F_location">
</g>
<g id="right_x5F_handle_x5F_location">
	<rect x="331.1" y="203" class="st20" width="64" height="615"/>
</g>
<g id="left_x5F_handle_x5F_location">
	<rect x="15.2" y="203" class="st20" width="64" height="615"/>
</g>
<g id="lock_x5F_location">
	<rect x="367.9" y="322.1" class="st20" width="25" height="40"/>
</g>
<g id="letterbox_x5F_location">
	<rect x="142.4" y="537.6" class="st20" width="126" height="30"/>
</g>
<g id="knocker_x5F_location">
	<rect x="183.4" y="161.5" class="st20" width="44" height="60"/>
</g>
<g id="glass_x5F_4">
</g>
<g id="glass_x5F_3">
</g>
<g id="glass_x5F_2">
</g>
<g id="glass_x5F_1">
	<g>
		<rect x="95.9" y="57.4" class="st20" width="218.5" height="86.2"/>
		<path class="st21" d="M205.2,57.4c-87.5,0-109.2,86.2-109.2,86.2h218.5C314.5,143.6,292.6,57.4,205.2,57.4z"/>
	</g>
</g>

</svg>
