<?xml version="1.0" encoding="utf-8"?>
<!-- Generator: Adobe Illustrator 18.1.1, SVG Export Plug-In . SVG Version: 6.00 Build 0)  -->
<svg version="1.1" id="Layer_1" xmlns="http://www.w3.org/2000/svg" xmlns:xlink="http://www.w3.org/1999/xlink" x="0px" y="0px"
	 width="20px" height="30px" viewBox="0 0 28 45" enable-background="new 0 0 28 45" xml:space="preserve">
<g>
	<g>
		<path fill="#FFFFFF" d="M26,44.3c-0.1,0-0.2,0-0.3-0.1l-25-9.7c-0.5-0.2-0.7-0.7-0.5-1.2c0.2-0.5,0.8-0.7,1.2-0.5l25,9.7
			c0.5,0.2,0.7,0.7,0.5,1.2C26.7,44.1,26.3,44.3,26,44.3z"/>
	</g>
	<g>
		<g>
			<path fill="#FFFFFF" d="M22,42.8c-0.1,0-0.2,0-0.3-0.1L4.5,36.1c-0.4-0.1-0.6-0.5-0.6-0.9V1c0-0.3,0.2-0.6,0.4-0.8
				C4.6,0,4.9,0,5.2,0.1l17.1,6.7C22.8,6.9,23,7.2,23,7.6v34.2c0,0.3-0.2,0.6-0.4,0.8C22.4,42.7,22.2,42.8,22,42.8z M5.9,34.5
				l15.2,5.9V8.3L5.9,2.4V34.5z"/>
		</g>
		<g>
			<path fill="#FFFFFF" d="M11,21.4c-0.1,0-0.2,0-0.3-0.1l-2-0.8c-0.5-0.2-0.7-0.7-0.5-1.2c0.2-0.5,0.8-0.7,1.2-0.5l2,0.8
				c0.5,0.2,0.7,0.7,0.5,1.2C11.7,21.1,11.3,21.4,11,21.4z"/>
		</g>
	</g>
</g>
</svg>