<?xml version="1.0" encoding="utf-8"?>
<!-- Generator: Adobe Illustrator 21.1.0, SVG Export Plug-In . SVG Version: 6.00 Build 0)  -->
<svg version="1.1" id="Layer_1" xmlns="http://www.w3.org/2000/svg" xmlns:xlink="http://www.w3.org/1999/xlink" x="0px" y="0px"
	 viewBox="0 0 54 54" style="enable-background:new 0 0 54 54;" xml:space="preserve">
<style type="text/css">
	.st0{fill:none;stroke:#FFFFFF;stroke-width:2;stroke-miterlimit:10;}
	.st1{fill:#FFFFFF;stroke:#FFFFFF;stroke-linecap:round;stroke-linejoin:round;stroke-miterlimit:10;}
</style>
<g>
	<circle class="st0" cx="27.5" cy="27" r="25"/>
	<g>
		<path class="st1" d="M21.2,21.3h-5.6c2.8-3.5,5.6-7,11.9-7c7,0,12.6,5.7,12.6,12.7h1.4c0-7.8-6.3-14.1-14-14.1
			c-6.7,0-9.9,3.7-12.7,7.1v-5h-1.4v7.7h7.7V21.3z"/>
		<path class="st1" d="M33.9,32.6h4.9c0,0,0.6,0,0.6,0c-2.8,3.4-5.7,7-11.9,7c-6.9,0-12.6-5.7-12.6-12.7h-1.4
			c0,7.8,6.3,14.1,14,14.1c6.7,0,10-3.7,12.7-7.2v5.1h1.4v-7.7h-7.7V32.6z"/>
	</g>
</g>
</svg>