<svg version="1.1" id="Layer_1" xmlns="http://www.w3.org/2000/svg" xmlns:xlink="http://www.w3.org/1999/xlink" x="0px" y="0px"
	 width="20px" height="30px" viewBox="0 0 12 28" enable-background="new 0 0 12 28" xml:space="preserve">
<path fill="#FFFFFF" d="M11.4,27.5c-0.1,0-0.2,0-0.3-0.1L0.2,19.7C0.1,19.6,0,19.4,0,19.2V8.5C0,8.3,0.1,8.1,0.2,8l10.8-7.7
	c0.2-0.1,0.4-0.1,0.6,0C11.8,0.4,12,0.6,12,0.8v26.1c0,0.2-0.1,0.4-0.3,0.5C11.6,27.4,11.5,27.5,11.4,27.5z M1.1,18.9l9.7,6.9V1.9
	L1.1,8.8V18.9z"/>
<path fill="#FFFFFF" d="M11.1,14.4H0.9c-0.3,0-0.6-0.3-0.6-0.6s0.3-0.6,0.6-0.6h10.2c0.3,0,0.6,0.3,0.6,0.6S11.4,14.4,11.1,14.4z"/>
<path fill="#FFFFFF" d="M4.8,22.5c-0.3,0-0.6-0.3-0.6-0.6V5.5c0-0.3,0.3-0.6,0.6-0.6s0.6,0.3,0.6,0.6v16.4
	C5.4,22.2,5.1,22.5,4.8,22.5z"/>
</svg>