<?xml version="1.0" encoding="utf-8"?>
<!-- Generator: Adobe Illustrator 21.0.0, SVG Export Plug-In . SVG Version: 6.00 Build 0)  -->
<svg xmlns="http://www.w3.org/2000/svg" xmlns:xlink="http://www.w3.org/1999/xlink" version="1.1" x="0px" y="0px" viewBox="0 0 902.1 1213.6" style="enable-background:new 0 0 902.1 1213.6;" xml:space="preserve">
<style type="text/css">
	.st0{display:none;}
	.st1{display:inline;fill:#FFFFFF;}
	.st2{display:inline;}
	.st3{fill:#DCDDDE;}
	.st4{fill:#BCBDC0;}
	.st5{fill:#E6E7E8;}
	.st6{fill:#A7A9AC;}
	.st7{fill:#9D9FA2;}
	.st8{fill:url(#SVGID_1_);}
	.st9{fill:#FFFBCC;mix-blend-mode:multiply;}
	.st10{fill:#6D6F71;}
	.st11{clip-path:url(#SVGID_2_);}
	.st12{fill-rule:evenodd;clip-rule:evenodd;fill:url(#SVGID_3_);}
	.st13{fill:none;}
	.st14{fill:#FFFFFF;}
	.st15{opacity:0.5;fill:url(#SVGID_5_);}
	.st16{opacity:0.5;fill:url(#SVGID_6_);}
	.st17{opacity:0.5;fill:url(#SVGID_7_);}
	.st18{fill:#939598;}
	.st19{fill:#B2B4B6;}
	.st20{fill:#C6C8CA;}
	.st21{fill:#8A8C8E;}
	.st22{fill:#808285;}
	.st23{fill:#77787B;}
	.st24{fill:#F1F1F2;}
	.st25{opacity:0.5;}
	.st26{opacity:0.5;fill:url(#SVGID_8_);}
</style>
<g id="frame_x5F_bits" class="st0">
</g>
<g id="frame_x5F_colour_x5F_bits" class="st0">
</g>
<g id="door_x5F_position" class="st0">
	<polyline class="st1" points="656,1213.6 246,1213.6 246,273.6 656,273.6 656,1213.6  "/>
	<g class="st2">
		<polyline class="st3" points="656.1,1213.6 246.1,1213.6 246.1,273.6 656.1,273.6 656.1,1213.6   "/>
		<rect x="653.1" y="273.6" class="st4" width="3" height="940"/>
		<rect x="246.1" y="273.6" class="st5" width="3" height="940"/>
		
			<rect x="246.1" y="1212.6" transform="matrix(-1 -1.224647e-16 1.224647e-16 -1 902.1194 2426.2727)" class="st6" width="410" height="1"/>
		
			<rect x="246.1" y="273.6" transform="matrix(-1 -1.224647e-16 1.224647e-16 -1 902.1194 548.2756)" class="st5" width="410" height="1"/>
		<rect x="303" y="274.7" class="st7" width="1" height="937.2"/>
		<rect x="598.5" y="274.7" class="st7" width="1" height="937.2"/>
		
			<rect x="450.2" y="207.8" transform="matrix(6.123234e-17 -1 1 6.123234e-17 99.1764 802.2208)" class="st7" width="1" height="287.5"/>
		
			<rect x="450.2" y="971.6" transform="matrix(6.123234e-17 -1 1 6.123234e-17 -664.6758 1566.073)" class="st7" width="1" height="287.5"/>
		<linearGradient id="SVGID_1_" gradientUnits="userSpaceOnUse" x1="802.788" y1="1038.7721" x2="99.3314" y2="448.5019">
			<stop offset="0.1314" style="stop-color:#000000;stop-opacity:0.4"/>
			<stop offset="0.1359" style="stop-color:#040404;stop-opacity:0.4007"/>
			<stop offset="0.2085" style="stop-color:#3E3E3E;stop-opacity:0.4127"/>
			<stop offset="0.2831" style="stop-color:#717171;stop-opacity:0.4249"/>
			<stop offset="0.3577" style="stop-color:#9D9D9D;stop-opacity:0.4372"/>
			<stop offset="0.4327" style="stop-color:#C0C0C0;stop-opacity:0.4496"/>
			<stop offset="0.508" style="stop-color:#DCDCDC;stop-opacity:0.462"/>
			<stop offset="0.5838" style="stop-color:#EFEFEF;stop-opacity:0.4744"/>
			<stop offset="0.6604" style="stop-color:#FBFBFB;stop-opacity:0.487"/>
			<stop offset="0.7393" style="stop-color:#FFFFFF;stop-opacity:0.5"/>
		</linearGradient>
		<polyline class="st8" points="656.1,1213.6 246.1,1213.6 246.1,273.6 656.1,273.6 656.1,1213.6   "/>
		<polyline class="st9" points="656.1,1213.6 246.1,1213.6 246.1,273.6 656.1,273.6 656.1,1213.6   "/>
		<path class="st10" d="M509.6,361.9H391.7c-4.4,0-8,3.6-8,8v638.2c0,4.4,3.6,8,8,8h117.8c4.4,0,8-3.6,8-8V369.9    C517.6,365.5,514,361.9,509.6,361.9z M489.5,474.4h-77.8V392h77.8V474.4z M489.5,577.1h-77.8v-82.4h77.8V577.1z M489.5,679.8    h-77.8v-82.4h77.8V679.8z M489.5,782.6h-77.8v-82.4h77.8V782.6z M489.5,885.3h-77.8v-82.4h77.8V885.3z M489.5,988h-77.8v-82.4    h77.8V988z"/>
		<g>
			<defs>
				<path id="SVGID_4_" d="M510.6,360.9H392.7c-4.4,0-8,3.6-8,8v638.2c0,4.4,3.6,8,8,8h117.8c4.4,0,8-3.6,8-8V368.9      C518.6,364.5,515,360.9,510.6,360.9z M490.5,473.4h-77.8V391h77.8V473.4z M490.5,576.1h-77.8v-82.4h77.8V576.1z M490.5,678.8      h-77.8v-82.4h77.8V678.8z M490.5,781.6h-77.8v-82.4h77.8V781.6z M490.5,884.3h-77.8v-82.4h77.8V884.3z M490.5,987h-77.8v-82.4      h77.8V987z"/>
			</defs>
			<clipPath id="SVGID_2_">
				<use xlink:href="#SVGID_4_" style="overflow:visible;"/>
			</clipPath>
			<g class="st11">
				
					<linearGradient id="SVGID_3_" gradientUnits="userSpaceOnUse" x1="187.2556" y1="230.4673" x2="935.6956" y2="230.4673" gradientTransform="matrix(0 -1 1 0 221.1718 1227.946)">
					<stop offset="0" style="stop-color:#747F86"/>
					<stop offset="0.1406" style="stop-color:#D9D9D9"/>
					<stop offset="0.1705" style="stop-color:#AEAEAE;stop-opacity:0.9387"/>
					<stop offset="0.2065" style="stop-color:#818181;stop-opacity:0.8647"/>
					<stop offset="0.2429" style="stop-color:#5C5C5C;stop-opacity:0.7901"/>
					<stop offset="0.279" style="stop-color:#3F3F3F;stop-opacity:0.7161"/>
					<stop offset="0.3148" style="stop-color:#2A2A2A;stop-opacity:0.6427"/>
					<stop offset="0.3501" style="stop-color:#1E1E1E;stop-opacity:0.5703"/>
					<stop offset="0.3844" style="stop-color:#1A1A1A;stop-opacity:0.5"/>
					<stop offset="0.4268" style="stop-color:#1F1F1F;stop-opacity:0.5572"/>
					<stop offset="0.4818" style="stop-color:#2F2F2F;stop-opacity:0.6314"/>
					<stop offset="0.5437" style="stop-color:#4A4A4A;stop-opacity:0.7149"/>
					<stop offset="0.6106" style="stop-color:#6F6F6F;stop-opacity:0.8053"/>
					<stop offset="0.6817" style="stop-color:#9F9F9F;stop-opacity:0.9011"/>
					<stop offset="0.755" style="stop-color:#D9D9D9"/>
					<stop offset="0.7953" style="stop-color:#D1D2D3"/>
					<stop offset="0.8569" style="stop-color:#BCBFC1"/>
					<stop offset="0.9315" style="stop-color:#9AA1A5"/>
					<stop offset="1" style="stop-color:#747F86"/>
				</linearGradient>
				<rect x="374.8" y="348.4" class="st12" width="153.8" height="671.3"/>
			</g>
		</g>
		<rect x="577.1" y="476.6" class="st13" width="64" height="615"/>
		<rect x="261.3" y="476.6" class="st13" width="64" height="615"/>
		<rect x="614" y="595.7" class="st13" width="25" height="40"/>
		<rect x="388.5" y="1067.3" class="st13" width="126" height="30"/>
		<rect x="412.8" y="905.4" class="st14" width="76.8" height="81.4"/>
		<rect x="412.8" y="802.7" class="st14" width="76.8" height="81.4"/>
		<rect x="412.8" y="700" class="st14" width="76.8" height="81.4"/>
		<rect x="412.8" y="597.4" class="st14" width="76.8" height="81.4"/>
		<rect x="412.8" y="494.7" class="st14" width="76.8" height="81.4"/>
		<rect x="412.8" y="392" class="st14" width="76.8" height="81.4"/>
	</g>
</g>
<g id="frame">
	<polygon class="st3" points="702.8,232.7 670.5,232.7 655.9,232.7 246,232.7 216,232.7 0,232.7 0,1213.6 199,1213.6 199,1213.6    246.1,1213.6 246.1,273.6 655.9,273.6 655.9,1213.6 702.8,1213.6 702.8,849  "/>
	
		<linearGradient id="SVGID_5_" gradientUnits="userSpaceOnUse" x1="1329.6115" y1="257.2025" x2="1329.6115" y2="276.4382" gradientTransform="matrix(0 1 -1 0 913.2177 -585.9742)">
		<stop offset="0.2326" style="stop-color:#000000;stop-opacity:0.2"/>
		<stop offset="0.3475" style="stop-color:#202020;stop-opacity:0.1701"/>
		<stop offset="0.6009" style="stop-color:#737373;stop-opacity:0.104"/>
		<stop offset="0.972" style="stop-color:#F5F5F5;stop-opacity:7.305220e-03"/>
		<stop offset="1" style="stop-color:#FFFFFF;stop-opacity:0"/>
	</linearGradient>
	<polygon class="st15" points="656,273.6 656,1213.6 636.8,1213.6 636.8,273.6  "/>
	<linearGradient id="SVGID_6_" gradientUnits="userSpaceOnUse" x1="451.0149" y1="273.6382" x2="451.0149" y2="292.874">
		<stop offset="0.2326" style="stop-color:#000000;stop-opacity:0.3"/>
		<stop offset="0.3475" style="stop-color:#202020;stop-opacity:0.2551"/>
		<stop offset="0.6009" style="stop-color:#737373;stop-opacity:0.156"/>
		<stop offset="0.972" style="stop-color:#F5F5F5;stop-opacity:1.095784e-02"/>
		<stop offset="1" style="stop-color:#FFFFFF;stop-opacity:0"/>
	</linearGradient>
	<polygon class="st16" points="246,273.6 656,273.6 656,292.9 246,292.9  "/>
	
		<linearGradient id="SVGID_7_" gradientUnits="userSpaceOnUse" x1="1090.3428" y1="-730.7043" x2="1090.3428" y2="-718.5294" gradientTransform="matrix(0 -1 1 0 976.7391 1833.9801)">
		<stop offset="0.2314" style="stop-color:#77787B;stop-opacity:0.3"/>
		<stop offset="0.4358" style="stop-color:#97989A;stop-opacity:0.2202"/>
		<stop offset="0.8824" style="stop-color:#E9E9E9;stop-opacity:4.590285e-02"/>
		<stop offset="1" style="stop-color:#FFFFFF;stop-opacity:0"/>
	</linearGradient>
	<polygon class="st17" points="246,1213.6 246,273.6 258.2,273.6 258.2,1213.6  "/>
	<rect x="656.2" y="273.6" class="st5" width="3" height="940"/>
	<rect x="243" y="273.6" class="st4" width="3" height="940"/>
	
		<rect x="656.2" y="1212.6" transform="matrix(-1 -1.224647e-16 1.224647e-16 -1 1358.896 2426.2727)" class="st6" width="46.6" height="1"/>
	<rect x="700.8" y="228.2" class="st14" width="2" height="984.4"/>
	<rect x="0" y="234.6" class="st5" width="3" height="979"/>
	
		<rect x="0" y="1212.6" transform="matrix(-1 -1.224647e-16 1.224647e-16 -1 245.9751 2426.2727)" class="st6" width="246" height="1"/>
	<polygon class="st10" points="202.9,275.6 42.5,275.6 46.5,279.6 198.9,279.6  "/>
	<polygon class="st6" points="196.9,281.6 48.5,281.6 46.5,279.6 198.9,279.6  "/>
	<polygon class="st10" points="196.9,281.6 48.5,281.6 51.5,284.6 193.9,284.6  "/>
	<polygon class="st18" points="51.5,284.6 193.9,284.6 191.9,286.6 53.5,286.6  "/>
	<polygon class="st19" points="202.9,275.6 42.5,275.6 40.5,273.6 204.9,273.6  "/>
	<polygon class="st6" points="42.5,1170.6 202.9,1170.6 198.9,1166.6 46.5,1166.6  "/>
	<polygon class="st20" points="48.5,1164.6 196.9,1164.6 198.9,1166.6 46.5,1166.6  "/>
	<polygon class="st21" points="48.5,1164.6 196.9,1164.6 193.9,1161.6 51.5,1161.6  "/>
	<polygon class="st18" points="193.9,1161.6 51.5,1161.6 53.5,1159.6 191.9,1159.6  "/>
	<polygon class="st20" points="42.5,1170.6 202.9,1170.6 204.9,1172.6 40.5,1172.6  "/>
	<polygon class="st6" points="42.5,275.6 42.5,1170.6 46.5,1166.6 46.5,279.6  "/>
	<polygon class="st20" points="48.5,281.6 48.5,1164.6 46.5,1166.6 46.5,279.6  "/>
	<polygon class="st22" points="48.5,281.6 48.5,1164.6 51.5,1161.6 51.5,284.6  "/>
	<polygon class="st18" points="51.5,1161.6 51.5,284.6 53.5,286.6 53.5,1159.6  "/>
	<polygon class="st19" points="42.5,275.6 42.5,1170.6 40.5,1172.6 40.5,273.6  "/>
	<polygon class="st23" points="202.9,1170.6 202.9,275.6 198.9,279.6 198.9,1166.6  "/>
	<polygon class="st6" points="196.9,1164.6 196.9,281.6 198.9,279.6 198.9,1166.6  "/>
	<polygon class="st22" points="196.9,1164.6 196.9,281.6 193.9,284.6 193.9,1161.6  "/>
	<polygon class="st18" points="193.9,284.6 193.9,1161.6 191.9,1159.6 191.9,286.6  "/>
	<polygon class="st20" points="202.9,1170.6 202.9,275.6 204.9,273.6 204.9,1172.6  "/>
	
		<rect x="0" y="232.7" transform="matrix(-1 -1.224647e-16 1.224647e-16 -1 702.8354 467.3414)" class="st24" width="702.8" height="1.9"/>
</g>
<g id="frame_x5F_joins" class="st25">
	
		<rect x="238.8" y="266.1" transform="matrix(0.7071 -0.7071 0.7071 0.7071 -121.3257 248.5279)" class="st6" width="1" height="9.3" style="mix-blend-mode:multiply"/>
	
		<rect x="223.4" y="255.1" transform="matrix(-1.836970e-16 1 -1 -1.836970e-16 491.5436 43.6676)" class="st20" width="1" height="24.9" style="mix-blend-mode:multiply"/>
	
		<rect x="208" y="266.1" transform="matrix(0.7071 0.7071 -0.7071 0.7071 252.5065 -68.1706)" class="st24" width="1" height="9.3" style="mix-blend-mode:multiply"/>
	
		<rect x="693.3" y="266.1" transform="matrix(0.7071 -0.7071 0.7071 0.7071 11.7896 569.8967)" class="st6" width="1" height="9.3" style="mix-blend-mode:multiply"/>
	
		<rect x="677.9" y="255.1" transform="matrix(-1.836970e-16 1 -1 -1.836970e-16 946.0276 -410.8165)" class="st20" width="1" height="24.9" style="mix-blend-mode:multiply"/>
	
		<rect x="662.5" y="266.1" transform="matrix(0.7071 0.7071 -0.7071 0.7071 385.6219 -389.5394)" class="st24" width="1" height="9.3" style="mix-blend-mode:multiply"/>
	
		<rect x="36.9" y="266.1" transform="matrix(0.7071 -0.7071 0.7071 0.7071 -180.4621 105.7601)" class="st6" width="1" height="9.3" style="mix-blend-mode:multiply"/>
	
		<rect x="21.5" y="255.1" transform="matrix(-1.836970e-16 1 -1 -1.836970e-16 289.6393 245.5718)" class="st20" width="1" height="24.9" style="mix-blend-mode:multiply"/>
	<rect x="6.1" y="266.1" transform="matrix(0.7071 0.7071 -0.7071 0.7071 193.3702 74.5973)" class="st24" width="1" height="9.3" style="mix-blend-mode:multiply"/>
	
		<rect x="238.8" y="1169.6" transform="matrix(0.7071 0.7071 -0.7071 0.7071 900.4279 174.6962)" class="st6" width="1" height="9.3" style="mix-blend-mode:multiply"/>
	
		<rect x="223.4" y="1164.9" transform="matrix(6.123234e-17 -1 1 6.123234e-17 -953.4341 1401.3102)" class="st20" width="1" height="24.9" style="mix-blend-mode:multiply"/>
	
		<rect x="208" y="1169.6" transform="matrix(0.7071 -0.7071 0.7071 0.7071 -769.247 491.3948)" class="st24" width="1" height="9.3" style="mix-blend-mode:multiply"/>
	
		<rect x="36.9" y="1169.6" transform="matrix(0.7071 0.7071 -0.7071 0.7071 841.2914 317.4641)" class="st6" width="1" height="9.3" style="mix-blend-mode:multiply"/>
	
		<rect x="21.5" y="1164.9" transform="matrix(6.123234e-17 -1 1 6.123234e-17 -1155.3384 1199.4059)" class="st20" width="1" height="24.9" style="mix-blend-mode:multiply"/>
	
		<rect x="6.1" y="1169.6" transform="matrix(0.7071 -0.7071 0.7071 0.7071 -828.3834 348.6269)" class="st24" width="1" height="9.3" style="mix-blend-mode:multiply"/>
</g>
<g id="frame_x5F_colour">
	<polygon class="st9" points="702.8,232.7 0,232.7 0,1213.6 197,1213.6 197,1213.6 246.1,1213.6 246.1,273.6 655.9,273.6    655.9,1213.6 702.8,1213.6 702.8,849  " style="fill:#ffffff;mix-blend-mode:multiply"/>
</g>
<g id="frame_x5F_gradient">
	<linearGradient id="SVGID_8_" gradientUnits="userSpaceOnUse" x1="799.1387" y1="1098.869" x2="-96.3019" y2="347.5051">
		<stop offset="6.298310e-02" style="stop-color:#000000;stop-opacity:0.6"/>
		<stop offset="8.295118e-02" style="stop-color:#141414;stop-opacity:0.587"/>
		<stop offset="0.1363" style="stop-color:#454545;stop-opacity:0.5524"/>
		<stop offset="0.1939" style="stop-color:#717171;stop-opacity:0.5149"/>
		<stop offset="0.2545" style="stop-color:#989898;stop-opacity:0.4755"/>
		<stop offset="0.3189" style="stop-color:#B8B8B8;stop-opacity:0.4337"/>
		<stop offset="0.3882" style="stop-color:#D2D2D2;stop-opacity:0.3887"/>
		<stop offset="0.4641" style="stop-color:#E6E6E6;stop-opacity:0.3394"/>
		<stop offset="0.5502" style="stop-color:#F4F4F4;stop-opacity:0.2834"/>
		<stop offset="0.6552" style="stop-color:#FCFCFC;stop-opacity:0.2152"/>
		<stop offset="0.8324" style="stop-color:#FFFFFF;stop-opacity:0.1"/>
		<stop offset="0.8403" style="stop-color:#F1F1F1;stop-opacity:0.1"/>
		<stop offset="0.9171" style="stop-color:#717171;stop-opacity:0.1"/>
		<stop offset="0.9696" style="stop-color:#202020;stop-opacity:0.1"/>
		<stop offset="0.9935" style="stop-color:#000000;stop-opacity:0.1"/>
	</linearGradient>
	<polygon class="st26" points="702.8,232.7 0,232.7 0,1213.6 197,1213.6 197,1213.6 246.1,1213.6 246.1,273.6 655.9,273.6    655.9,1213.6 702.8,1213.6 702.8,849  "/>
</g>
<g id="sl_x5F_bot_x5F_right" class="st0">
</g>
<g id="sl_x5F_bot_x5F_left" class="st0">
</g>
<g id="sl_x5F_mid_x5F_right" class="st0">
</g>
<g id="sl_x5F_mid_x5F_left" class="st0">
</g>
<g id="sl_x5F_full_x5F_right" class="st0">
</g>
<g id="sl_x5F_full_x5F_left">
	<rect x="53.5" y="286.6" class="st14" width="138.4" height="873"/>
</g>
<g id="arch_x5F_mid" class="st0">
</g>
<g id="arch_x5F_side" class="st0">
</g>
<g id="arch_x5F_full" class="st0">
</g>
<g id="top_x5F_mid" class="st0">
</g>
<g id="top_x5F_side" class="st0">
</g>
<g id="top_x5F_full" class="st0">
</g>

</svg>
