<?xml version="1.0" encoding="utf-8"?>
<!-- Generator: Adobe Illustrator 21.0.0, SVG Export Plug-In . SVG Version: 6.00 Build 0)  -->
<svg xmlns="http://www.w3.org/2000/svg" xmlns:xlink="http://www.w3.org/1999/xlink" version="1.1" x="0px" y="0px" viewBox="0 0 902.1 1213.6" style="enable-background:new 0 0 902.1 1213.6;" xml:space="preserve">
<style type="text/css">
	.st0{display:none;}
	.st1{display:inline;fill:#FFFFFF;}
	.st2{display:inline;}
	.st3{fill:#DCDDDE;}
	.st4{fill:#BCBDC0;}
	.st5{fill:#E6E7E8;}
	.st6{fill:#A7A9AC;}
	.st7{fill:#9D9FA2;}
	.st8{fill:url(#SVGID_1_);}
	.st9{fill:#FFFBCC;mix-blend-mode:multiply;}
	.st10{fill:#6D6F71;}
	.st11{clip-path:url(#SVGID_2_);}
	.st12{fill-rule:evenodd;clip-rule:evenodd;fill:url(#SVGID_3_);}
	.st13{fill:none;}
	.st14{fill:#FFFFFF;}
	.st15{fill:#B2B4B6;}
	.st16{opacity:0.5;fill:url(#SVGID_5_);}
	.st17{opacity:0.5;fill:url(#SVGID_6_);}
	.st18{opacity:0.5;fill:url(#SVGID_7_);}
	.st19{fill:#C6C8CA;}
	.st20{fill:#939598;}
	.st21{fill:#8A8C8E;}
	.st22{opacity:0.5;}
	.st23{fill:#F1F1F2;}
	.st24{opacity:0.5;fill:#B2B4B6;}
	.st25{opacity:0.5;fill:url(#SVGID_8_);}
</style>
<g id="frame_x5F_bits" class="st0">
</g>
<g id="frame_x5F_colour_x5F_bits" class="st0">
</g>
<g id="door_x5F_position" class="st0">
	<polyline class="st1" points="656,1213.6 246,1213.6 246,273.6 656,273.6 656,1213.6  "/>
	<g class="st2">
		<polyline class="st3" points="656.1,1213.6 246.1,1213.6 246.1,273.6 656.1,273.6 656.1,1213.6   "/>
		<rect x="653.1" y="273.6" class="st4" width="3" height="940"/>
		<rect x="246.1" y="273.6" class="st5" width="3" height="940"/>
		
			<rect x="246.1" y="1212.6" transform="matrix(-1 -1.224647e-16 1.224647e-16 -1 902.1194 2426.2727)" class="st6" width="410" height="1"/>
		
			<rect x="246.1" y="273.6" transform="matrix(-1 -1.224647e-16 1.224647e-16 -1 902.1194 548.2756)" class="st5" width="410" height="1"/>
		<rect x="303" y="274.7" class="st7" width="1" height="937.2"/>
		<rect x="598.5" y="274.7" class="st7" width="1" height="937.2"/>
		
			<rect x="450.2" y="207.8" transform="matrix(6.123234e-17 -1 1 6.123234e-17 99.1764 802.2208)" class="st7" width="1" height="287.5"/>
		
			<rect x="450.2" y="971.6" transform="matrix(6.123234e-17 -1 1 6.123234e-17 -664.6758 1566.073)" class="st7" width="1" height="287.5"/>
		<linearGradient id="SVGID_1_" gradientUnits="userSpaceOnUse" x1="802.788" y1="1038.7721" x2="99.3314" y2="448.5019">
			<stop offset="0.1314" style="stop-color:#000000;stop-opacity:0.4"/>
			<stop offset="0.1359" style="stop-color:#040404;stop-opacity:0.4007"/>
			<stop offset="0.2085" style="stop-color:#3E3E3E;stop-opacity:0.4127"/>
			<stop offset="0.2831" style="stop-color:#717171;stop-opacity:0.4249"/>
			<stop offset="0.3577" style="stop-color:#9D9D9D;stop-opacity:0.4372"/>
			<stop offset="0.4327" style="stop-color:#C0C0C0;stop-opacity:0.4496"/>
			<stop offset="0.508" style="stop-color:#DCDCDC;stop-opacity:0.462"/>
			<stop offset="0.5838" style="stop-color:#EFEFEF;stop-opacity:0.4744"/>
			<stop offset="0.6604" style="stop-color:#FBFBFB;stop-opacity:0.487"/>
			<stop offset="0.7393" style="stop-color:#FFFFFF;stop-opacity:0.5"/>
		</linearGradient>
		<polyline class="st8" points="656.1,1213.6 246.1,1213.6 246.1,273.6 656.1,273.6 656.1,1213.6   "/>
		<polyline class="st9" points="656.1,1213.6 246.1,1213.6 246.1,273.6 656.1,273.6 656.1,1213.6   "/>
		<path class="st10" d="M509.6,361.9H391.7c-4.4,0-8,3.6-8,8v638.2c0,4.4,3.6,8,8,8h117.8c4.4,0,8-3.6,8-8V369.9    C517.6,365.5,514,361.9,509.6,361.9z M489.5,474.4h-77.8V392h77.8V474.4z M489.5,577.1h-77.8v-82.4h77.8V577.1z M489.5,679.8    h-77.8v-82.4h77.8V679.8z M489.5,782.6h-77.8v-82.4h77.8V782.6z M489.5,885.3h-77.8v-82.4h77.8V885.3z M489.5,988h-77.8v-82.4    h77.8V988z"/>
		<g>
			<defs>
				<path id="SVGID_4_" d="M510.6,360.9H392.7c-4.4,0-8,3.6-8,8v638.2c0,4.4,3.6,8,8,8h117.8c4.4,0,8-3.6,8-8V368.9      C518.6,364.5,515,360.9,510.6,360.9z M490.5,473.4h-77.8V391h77.8V473.4z M490.5,576.1h-77.8v-82.4h77.8V576.1z M490.5,678.8      h-77.8v-82.4h77.8V678.8z M490.5,781.6h-77.8v-82.4h77.8V781.6z M490.5,884.3h-77.8v-82.4h77.8V884.3z M490.5,987h-77.8v-82.4      h77.8V987z"/>
			</defs>
			<clipPath id="SVGID_2_">
				<use xlink:href="#SVGID_4_" style="overflow:visible;"/>
			</clipPath>
			<g class="st11">
				
					<linearGradient id="SVGID_3_" gradientUnits="userSpaceOnUse" x1="187.2556" y1="230.4673" x2="935.6956" y2="230.4673" gradientTransform="matrix(0 -1 1 0 221.1718 1227.946)">
					<stop offset="0" style="stop-color:#747F86"/>
					<stop offset="0.1406" style="stop-color:#D9D9D9"/>
					<stop offset="0.1705" style="stop-color:#AEAEAE;stop-opacity:0.9387"/>
					<stop offset="0.2065" style="stop-color:#818181;stop-opacity:0.8647"/>
					<stop offset="0.2429" style="stop-color:#5C5C5C;stop-opacity:0.7901"/>
					<stop offset="0.279" style="stop-color:#3F3F3F;stop-opacity:0.7161"/>
					<stop offset="0.3148" style="stop-color:#2A2A2A;stop-opacity:0.6427"/>
					<stop offset="0.3501" style="stop-color:#1E1E1E;stop-opacity:0.5703"/>
					<stop offset="0.3844" style="stop-color:#1A1A1A;stop-opacity:0.5"/>
					<stop offset="0.4268" style="stop-color:#1F1F1F;stop-opacity:0.5572"/>
					<stop offset="0.4818" style="stop-color:#2F2F2F;stop-opacity:0.6314"/>
					<stop offset="0.5437" style="stop-color:#4A4A4A;stop-opacity:0.7149"/>
					<stop offset="0.6106" style="stop-color:#6F6F6F;stop-opacity:0.8053"/>
					<stop offset="0.6817" style="stop-color:#9F9F9F;stop-opacity:0.9011"/>
					<stop offset="0.755" style="stop-color:#D9D9D9"/>
					<stop offset="0.7953" style="stop-color:#D1D2D3"/>
					<stop offset="0.8569" style="stop-color:#BCBFC1"/>
					<stop offset="0.9315" style="stop-color:#9AA1A5"/>
					<stop offset="1" style="stop-color:#747F86"/>
				</linearGradient>
				<rect x="374.8" y="348.4" class="st12" width="153.8" height="671.3"/>
			</g>
		</g>
		<rect x="577.1" y="476.6" class="st13" width="64" height="615"/>
		<rect x="261.3" y="476.6" class="st13" width="64" height="615"/>
		<rect x="614" y="595.7" class="st13" width="25" height="40"/>
		<rect x="388.5" y="1067.3" class="st13" width="126" height="30"/>
		<rect x="412.8" y="905.4" class="st14" width="76.8" height="81.4"/>
		<rect x="412.8" y="802.7" class="st14" width="76.8" height="81.4"/>
		<rect x="412.8" y="700" class="st14" width="76.8" height="81.4"/>
		<rect x="412.8" y="597.4" class="st14" width="76.8" height="81.4"/>
		<rect x="412.8" y="494.7" class="st14" width="76.8" height="81.4"/>
		<rect x="412.8" y="392" class="st14" width="76.8" height="81.4"/>
	</g>
</g>
<g id="frame">
	<path class="st3" d="M700.8,233.1c0,0-72.2-179.9-251.7-179.9c-180.2,0-252,179.6-252.1,179.9h0v616v364.5h49.1v-940h409.8v940h47   v0h0.8V238.4L700.8,233.1z M242.3,233.1c0.1-0.1,68-146.9,206.8-146.9c137.8,0,204.1,146.8,204.2,146.9H246v0H242.3z"/>
	<path class="st10" d="M645,224.2c0,0-58-131.7-194.4-131.7c-136.9,0-197,131.7-197,131.7l-3,2.4c0,0,61.3-135.9,200-135.9   C590,90.7,648,226.7,648,226.7L645,224.2z"/>
	<path class="st6" d="M250.7,226.7c0,0,60.7-135.9,200-135.9C589.3,90.7,648,226.7,648,226.7l2,1.6c0,0-57.7-138.8-199.4-138.8   c-142.3,0-202,138.8-202,138.8L250.7,226.7z"/>
	<path class="st10" d="M650,228.3c0,0-57.7-138.8-199.4-138.8c-142,0-202,138.8-202,138.8l-4,3.2c0,0,61-144.2,206-144.2   c145,0,203.4,144.2,203.4,144.2L650,228.3z"/>
	<path class="st15" d="M244.6,231.5c0,0,60-144.2,206-144.2C595.3,87.3,654,231.5,654,231.5l2.2,1.6c0,0-55.2-146.9-205.5-146.9   c-149.6,0-208.2,146.9-208.2,146.9L244.6,231.5z"/>
	
		<rect x="649.2" y="232.7" transform="matrix(-1 -1.224647e-16 1.224647e-16 -1 1305.14 466.4738)" class="st5" width="6.7" height="1"/>
	
		<rect x="244" y="232.7" transform="matrix(-1 -1.224647e-16 1.224647e-16 -1 489.9489 466.4738)" class="st5" width="2" height="1"/>
	
		<linearGradient id="SVGID_5_" gradientUnits="userSpaceOnUse" x1="1329.6115" y1="257.2025" x2="1329.6115" y2="276.4382" gradientTransform="matrix(0 1 -1 0 913.2177 -585.9742)">
		<stop offset="0.2326" style="stop-color:#000000;stop-opacity:0.2"/>
		<stop offset="0.3475" style="stop-color:#202020;stop-opacity:0.1701"/>
		<stop offset="0.6009" style="stop-color:#737373;stop-opacity:0.104"/>
		<stop offset="0.972" style="stop-color:#F5F5F5;stop-opacity:7.305220e-03"/>
		<stop offset="1" style="stop-color:#FFFFFF;stop-opacity:0"/>
	</linearGradient>
	<polygon class="st16" points="656,273.6 656,1213.6 636.8,1213.6 636.8,273.6  "/>
	<linearGradient id="SVGID_6_" gradientUnits="userSpaceOnUse" x1="451.0149" y1="273.6382" x2="451.0149" y2="292.874">
		<stop offset="0.2326" style="stop-color:#000000;stop-opacity:0.3"/>
		<stop offset="0.3475" style="stop-color:#202020;stop-opacity:0.2551"/>
		<stop offset="0.6009" style="stop-color:#737373;stop-opacity:0.156"/>
		<stop offset="0.972" style="stop-color:#F5F5F5;stop-opacity:1.095784e-02"/>
		<stop offset="1" style="stop-color:#FFFFFF;stop-opacity:0"/>
	</linearGradient>
	<polygon class="st17" points="246,273.6 656,273.6 656,292.9 246,292.9  "/>
	
		<linearGradient id="SVGID_7_" gradientUnits="userSpaceOnUse" x1="1090.3428" y1="-730.7043" x2="1090.3428" y2="-718.5294" gradientTransform="matrix(0 -1 1 0 976.7391 1833.9801)">
		<stop offset="0.2314" style="stop-color:#77787B;stop-opacity:0.3"/>
		<stop offset="0.4358" style="stop-color:#97989A;stop-opacity:0.2202"/>
		<stop offset="0.8824" style="stop-color:#E9E9E9;stop-opacity:4.590285e-02"/>
		<stop offset="1" style="stop-color:#FFFFFF;stop-opacity:0"/>
	</linearGradient>
	<polygon class="st18" points="246,1213.6 246,273.6 258.2,273.6 258.2,1213.6  "/>
	<rect x="656.2" y="273.6" class="st5" width="3" height="940"/>
	<rect x="243" y="273.6" class="st4" width="3.1" height="940"/>
	<polygon class="st14" points="703.9,1213.6 700.9,1213.6 700.9,233.2 703.9,238.4  "/>
	<polygon class="st19" points="702.9,1213.6 700.9,1213.6 700.9,1211.6 702.8,1211.6  "/>
	
		<rect x="197" y="1212.6" transform="matrix(-1 -1.224647e-16 1.224647e-16 -1 443.0796 2426.2727)" class="st6" width="49.1" height="1"/>
	<rect x="197.6" y="233.2" class="st6" width="1.4" height="979.4"/>
	<path class="st20" d="M255.6,222.6c0,0,61.1-129,195-129c134.4,0,192.4,129,192.4,129l2,1.6c0,0-57.7-131.7-194.4-131.7   c-137.3,0-197,131.7-197,131.7L255.6,222.6z"/>
	<polygon class="st21" points="250.7,226.7 648,226.7 645,224.2 253.6,224.2  "/>
	<polygon class="st20" points="645,224.2 253.6,224.2 255.6,222.6 643,222.6  "/>
	<polygon class="st6" points="244.6,231.5 654,231.5 650,228.3 248.6,228.3  "/>
	<polygon class="st19" points="250.7,226.7 648,226.7 650,228.3 248.6,228.3  "/>
	<polygon class="st19" points="244.6,231.5 654,231.5 656.2,233.1 242.5,233.1  "/>
</g>
<g id="frame_x5F_joins" class="st22">
	
		<rect x="662.1" y="238" transform="matrix(-1 -1.224647e-16 1.224647e-16 -1 1325.1666 508.5709)" class="st19" width="1" height="32.6" style="mix-blend-mode:multiply"/>
	
		<rect x="659" y="230.6" transform="matrix(-0.7071 0.7071 -0.7071 -0.7071 1292.1416 -64.7061)" class="st6" width="1" height="9.3" style="mix-blend-mode:multiply"/>
	
		<rect x="657.3" y="268.4" transform="matrix(0.7071 0.7071 -0.7071 0.7071 387.3775 -384.5155)" class="st23" width="1" height="13.9" style="mix-blend-mode:multiply"/>
	<rect x="237.8" y="236.1" class="st19" width="1" height="34.6" style="mix-blend-mode:multiply"/>
	
		<rect x="240.9" y="269" transform="matrix(0.7071 -0.7071 0.7071 0.7071 -122.785 250.8103)" class="st23" width="1" height="9.3" style="mix-blend-mode:multiply"/>
	
		<rect x="240.9" y="228.5" transform="matrix(-0.7071 -0.7071 0.7071 -0.7071 247.143 568.7444)" class="st6" width="1" height="9.3" style="mix-blend-mode:multiply"/>
	
		<rect x="679" y="219.9" transform="matrix(6.123234e-17 -1 1 6.123234e-17 445.0248 913.6911)" class="st24" width="0.8" height="28.8" style="mix-blend-mode:multiply"/>
	
		<rect x="220.6" y="219.9" transform="matrix(6.123234e-17 -1 1 6.123234e-17 -13.3048 455.3616)" class="st24" width="0.8" height="28.8" style="mix-blend-mode:multiply"/>
</g>
<g id="frame_x5F_colour">
	<path class="st9" d="M700.8,233.1c0,0-72.2-179.9-251.7-179.9c-180.2,0-252,179.6-252.1,179.9h0v616v364.5h49.1v-940h409.8v940h47   v0h0.8V238.4L700.8,233.1z" style="fill:#ffffff;mix-blend-mode:multiply"/>
</g>
<g id="frame_x5F_gradient">
	<linearGradient id="SVGID_8_" gradientUnits="userSpaceOnUse" x1="850.7867" y1="1038.1718" x2="60.568" y2="375.0995">
		<stop offset="6.298310e-02" style="stop-color:#000000;stop-opacity:0.6"/>
		<stop offset="8.295118e-02" style="stop-color:#141414;stop-opacity:0.587"/>
		<stop offset="0.1363" style="stop-color:#454545;stop-opacity:0.5524"/>
		<stop offset="0.1939" style="stop-color:#717171;stop-opacity:0.5149"/>
		<stop offset="0.2545" style="stop-color:#989898;stop-opacity:0.4755"/>
		<stop offset="0.3189" style="stop-color:#B8B8B8;stop-opacity:0.4337"/>
		<stop offset="0.3882" style="stop-color:#D2D2D2;stop-opacity:0.3887"/>
		<stop offset="0.4641" style="stop-color:#E6E6E6;stop-opacity:0.3394"/>
		<stop offset="0.5502" style="stop-color:#F4F4F4;stop-opacity:0.2834"/>
		<stop offset="0.6552" style="stop-color:#FCFCFC;stop-opacity:0.2152"/>
		<stop offset="0.8324" style="stop-color:#FFFFFF;stop-opacity:0.1"/>
		<stop offset="0.8403" style="stop-color:#F1F1F1;stop-opacity:0.1"/>
		<stop offset="0.9171" style="stop-color:#717171;stop-opacity:0.1"/>
		<stop offset="0.9696" style="stop-color:#202020;stop-opacity:0.1"/>
		<stop offset="0.9935" style="stop-color:#000000;stop-opacity:0.1"/>
	</linearGradient>
	<path class="st25" d="M700.8,233.1c0,0-72.2-179.9-251.7-179.9c-180.2,0-252,179.6-252.1,179.9h0v616v364.5h49.1v-940h409.8v940h47   v0h0.8V238.4L700.8,233.1z"/>
</g>
<g id="sl_x5F_bot_x5F_right" class="st0">
</g>
<g id="sl_x5F_bot_x5F_left" class="st0">
</g>
<g id="sl_x5F_mid_x5F_right" class="st0">
</g>
<g id="sl_x5F_mid_x5F_left" class="st0">
</g>
<g id="sl_x5F_full_x5F_right" class="st0">
</g>
<g id="sl_x5F_full_x5F_left" class="st0">
</g>
<g id="arch_x5F_mid">
	<g>
		<rect x="255.6" y="93.6" class="st13" width="387.4" height="129"/>
		<path class="st14" d="M255.6,222.6c0,0,60.7-129,195-129c135.4,0,192.4,129,192.4,129H255.6z"/>
	</g>
</g>
<g id="arch_x5F_side" class="st0">
</g>
<g id="arch_x5F_full" class="st0">
</g>
<g id="top_x5F_mid" class="st0">
</g>
<g id="top_x5F_side" class="st0">
</g>
<g id="top_x5F_full" class="st0">
</g>


</svg>
