
<svg version="1.1" id="Layer_1" xmlns="http://www.w3.org/2000/svg" xmlns:xlink="http://www.w3.org/1999/xlink" x="0px" y="0px"
	 width="20px" height="30px" viewBox="0 0 30 41" enable-background="new 0 0 30 41" xml:space="preserve">
<path id="Paint_Roller_7_" fill="#FFFFFF" d="M25.9,14.3l-2.2-0.8V9L0,0l0,11.8l23.7,9v-5.9l2.2,0.8c1.2,0.5,2.2,1.8,2.2,3.1v3.7
	c0,1-0.7,1.6-1.6,1.5l-11.9-1.3c-1.6-0.2-2.7,0.9-2.7,2.5v1.4l-3-1.1v9.6c0,2,1.7,4.3,3.7,5.1s3.7-0.3,3.7-2.3v-9.6l-3-1.1v-1.4
	c0-1,0.7-1.6,1.6-1.5l11.9,1.3c1.6,0.2,2.7-0.9,2.7-2.5v-3.7C29.6,17.4,27.9,15.1,25.9,14.3z M22.2,18.8L1.5,10.9V2l20.7,7.9V18.8z
	 M14.8,37.4c0,1.2-1,1.8-2.2,1.4c-1.2-0.5-2.2-1.8-2.2-3.1v-8.1l4.4,1.7V37.4z"/>
</svg>
