<svg version="1.1" id="Layer_1" xmlns="http://www.w3.org/2000/svg" xmlns:xlink="http://www.w3.org/1999/xlink" x="0px" y="0px"
	 width="20px" height="30px" viewBox="0 0 18 28" enable-background="new 0 0 18 28" xml:space="preserve">
<g>
	<g>
		<path fill="#FFFFFF" d="M15.7,26.7c-0.1,0-0.1,0-0.2,0l-13.2-5C2.1,21.7,2,21.5,2,21.3V3.5c0-0.2,0.1-0.3,0.2-0.4
			C2.3,3,2.5,3,2.6,3.1l13.2,5c0.2,0.1,0.3,0.3,0.3,0.5v17.8c0,0.2-0.1,0.3-0.2,0.4C15.8,26.7,15.8,26.7,15.7,26.7z M2.9,20.9
			l12.2,4.6V8.8L2.9,4.2V20.9z"/>
	</g>
	<g>
		<path fill="#FFFFFF" d="M9.1,24.1c-0.3,0-0.5-0.2-0.5-0.5V6.2c0-0.3,0.2-0.5,0.5-0.5s0.5,0.2,0.5,0.5v17.4
			C9.5,23.9,9.3,24.1,9.1,24.1z"/>
	</g>
	<g>
		<path fill="#FFFFFF" d="M15.7,9.1c-0.3,0-0.5-0.2-0.5-0.5c0-2.6-2.8-5.8-6.3-7.1C6.9,0.8,5.1,0.8,4,1.6c-0.7,0.5-1,1.2-1,2.1
			c0,0.3-0.2,0.5-0.5,0.5S2,4,2,3.7c0-1.2,0.5-2.3,1.5-2.9c1.4-1,3.5-1,5.8-0.2c3.8,1.4,6.9,5,6.9,8C16.1,8.9,15.9,9.1,15.7,9.1z"/>
	</g>
	<g>
		<g>
			<path fill="#FFFFFF" d="M7,15.1c-0.3,0-0.5-0.2-0.5-0.5v-2.3c0-0.3,0.2-0.5,0.5-0.5s0.5,0.2,0.5,0.5v2.3
				C7.5,14.9,7.3,15.1,7,15.1z"/>
		</g>
		<g>
			<path fill="#FFFFFF" d="M11.1,16.6c-0.3,0-0.5-0.2-0.5-0.5v-2.3c0-0.3,0.2-0.5,0.5-0.5s0.5,0.2,0.5,0.5v2.3
				C11.6,16.4,11.4,16.6,11.1,16.6z"/>
		</g>
	</g>
	<g>
		<path fill="#FFFFFF" d="M9.1,6.3c-0.3,0-0.5-0.2-0.5-0.5V1.1c0-0.3,0.2-0.5,0.5-0.5s0.5,0.2,0.5,0.5v4.7C9.5,6.1,9.3,6.3,9.1,6.3z
			"/>
	</g>
	<g>
		<g>
			<path fill="#FFFFFF" d="M8.7,6.2C8.6,6.2,8.5,6.1,8.4,6l-4.2-5C4,0.8,4.1,0.5,4.3,0.4c0.2-0.2,0.5-0.1,0.7,0.1l4.2,5
				c0.2,0.2,0.1,0.5-0.1,0.7C9,6.1,8.9,6.2,8.7,6.2z"/>
		</g>
		<g>
			<path fill="#FFFFFF" d="M9.4,6.4C9.2,6.4,9,6.3,8.9,6.1c-0.1-0.2,0-0.5,0.3-0.6l4.2-1.8c0.2-0.1,0.5,0,0.6,0.3
				c0.1,0.2,0,0.5-0.3,0.6L9.6,6.4C9.5,6.4,9.4,6.4,9.4,6.4z"/>
		</g>
	</g>
	<g>
		<path fill="#FFFFFF" d="M17.2,27.3c-0.1,0-0.1,0-0.2,0L0.3,21c-0.3-0.1-0.4-0.4-0.3-0.6c0.1-0.3,0.4-0.4,0.6-0.3l16.7,6.3
			c0.3,0.1,0.4,0.4,0.3,0.6C17.6,27.2,17.4,27.3,17.2,27.3z"/>
	</g>
</g>
</svg>