<svg version="1.1" id="Layer_1" xmlns="http://www.w3.org/2000/svg" xmlns:xlink="http://www.w3.org/1999/xlink" x="0px" y="0px"
	 width="20px" height="30px" viewBox="0 0 20 32" style="enable-background:new 0 0 20 32;" xml:space="preserve">
<style type="text/css">
	.st0{fill:none;stroke:#FFFFFF;stroke-width:1.2484;stroke-linecap:round;stroke-linejoin:round;stroke-miterlimit:10;}
</style>
<g id="Key_4_">
	<ellipse transform="matrix(0.7171 -0.697 0.697 0.7171 -1.595 8.4811)" class="st0" cx="9.6" cy="6.2" rx="1.6" ry="1.6"/>
	<path class="st0" d="M17.7,9.2c0.1-4.7-3.8-8.4-8.5-8.2c-4,0.2-7.3,3.4-7.6,7.4c-0.3,3.8,2,7.1,5.4,8.3l0,3l1.5,2.1l-1.6,2.1
		L8.3,26L6.7,28l0,2.7l2.6,0c1.5,0,2.6-1.1,2.7-2.6l0.2-11.4C15.3,15.8,17.6,12.8,17.7,9.2z"/>
</g>
</svg>