<svg version="1.1" id="Layer_1" xmlns="http://www.w3.org/2000/svg" xmlns:xlink="http://www.w3.org/1999/xlink" x="0px" y="0px" width="30px" height="30px"
	 viewBox="0 0 54 54" style="enable-background:new 0 0 54 54;" xml:space="preserve">
<style type="text/css">
	.st0{display:none;}
	.st1{display:inline;fill:none;stroke:#FFFFFF;stroke-width:2;stroke-miterlimit:10;}
	.st2{display:inline;}
	.st3{fill:#FFFFFF;stroke:#FFFFFF;stroke-linecap:round;stroke-linejoin:round;stroke-miterlimit:10;}
	.st4{fill:none;stroke:#FFFFFF;stroke-width:2;stroke-miterlimit:10;}
	.st5{fill:#FFFFFF;}
	.st6{fill:none;stroke:#FFFFFF;stroke-width:1.333;stroke-linecap:round;stroke-linejoin:round;stroke-miterlimit:10;}
</style>
<g class="st0">
	<circle class="st1" cx="27.5" cy="27" r="25"/>
	<g class="st2">
		<path class="st3" d="M21.2,21.3h-5.6c2.8-3.5,5.6-7,11.9-7c7,0,12.6,5.7,12.6,12.7h1.4c0-7.8-6.3-14.1-14-14.1
			c-6.7,0-9.9,3.7-12.7,7.1v-5h-1.4v7.7h7.7v-1.4H21.2z"/>
		<path class="st3" d="M33.9,32.6h4.9h0.6c-2.8,3.4-5.7,7-11.9,7c-6.9,0-12.6-5.7-12.6-12.7h-1.4c0,7.8,6.3,14.1,14,14.1
			c6.7,0,10-3.7,12.7-7.2v5.1h1.4v-7.7h-7.7V32.6z"/>
	</g>
</g>
<g>
	<g>
		<circle class="st4" cx="27.2" cy="27" r="25"/>
	</g>
	<g>
		<g>
			<g>
				<path class="st5" d="M27.7,22.5c-0.2-0.3-0.4-0.5-0.7-0.6c-0.2-0.1-0.5-0.2-0.9-0.2c-0.5,0-1,0.2-1.3,0.5
					c-0.3,0.3-0.6,0.9-0.7,1.6L23.9,25H27l-0.2,1.2h-3.1L23,29.6h4.6l-0.3,1.4h-6.1l0.9-4.7H21l0.2-1.2h1.1l0.3-1.4
					c0.1-0.6,0.3-1.1,0.5-1.5s0.5-0.7,0.8-1c0.3-0.2,0.7-0.4,1-0.5c0.4-0.1,0.8-0.2,1.2-0.2c1.1,0,1.9,0.4,2.5,1.3L27.7,22.5z"/>
			</g>
		</g>
		<g>
			<path class="st4" d="M37.9,35.2c-0.3,0.5-0.9,0.9-1.6,0.9h-21c-1,0-1.9-0.8-1.9-1.9V17.7c0-1,0.8-1.9,1.9-1.9h20.9
				c0.6,0,1.2,0.3,1.6,0.9l6.9,9.3L37.9,35.2z"/>
		</g>
		<circle class="st6" cx="38.3" cy="26" r="1.9"/>
	</g>
</g>
</svg>