<svg id="Layer_1" data-name="Layer 1" xmlns="http://www.w3.org/2000/svg" xmlns:xlink="http://www.w3.org/1999/xlink" viewBox="0 0 702.86 980.97"><defs><style>.cls-1{fill:#fff;}.cls-2{fill:#dcddde;}.cls-17,.cls-18,.cls-3,.cls-4,.cls-5{opacity:0.5;}.cls-18,.cls-3,.cls-4,.cls-5{isolation:isolate;}.cls-3{fill:url(#linear-gradient);}.cls-4{fill:url(#linear-gradient-2);}.cls-5{fill:url(#linear-gradient-3);}.cls-6{fill:#e6e7e8;}.cls-7{fill:#bcbdc0;}.cls-8{fill:#a7a9ac;}.cls-9{fill:#6d6f71;}.cls-10{fill:#939598;}.cls-11{fill:#b2b4b6;}.cls-12{fill:#c6c8ca;}.cls-13{fill:#8a8c8e;}.cls-14{fill:#808285;}.cls-15{fill:#77787b;}.cls-16{fill:#f1f1f2;}.cls-18{fill:url(#linear-gradient-4);}</style><linearGradient id="linear-gradient" x1="824.57" y1="915.08" x2="824.57" y2="895.85" gradientTransform="matrix(0, 1, 1, 0, -259.06, -313.67)" gradientUnits="userSpaceOnUse"><stop offset="0.23" stop-opacity="0.2"/><stop offset="0.35" stop-color="#202020" stop-opacity="0.17"/><stop offset="0.6" stop-color="#737373" stop-opacity="0.1"/><stop offset="0.97" stop-color="#f5f5f5" stop-opacity="0.01"/><stop offset="1" stop-color="#fff" stop-opacity="0"/></linearGradient><linearGradient id="linear-gradient-2" x1="451" y1="707.66" x2="451" y2="688.43" gradientTransform="matrix(1, 0, 0, -1, 0.02, 748.6)" gradientUnits="userSpaceOnUse"><stop offset="0.23" stop-opacity="0.3"/><stop offset="0.35" stop-color="#202020" stop-opacity="0.26"/><stop offset="0.6" stop-color="#737373" stop-opacity="0.16"/><stop offset="0.97" stop-color="#f5f5f5" stop-opacity="0.01"/><stop offset="1" stop-color="#fff" stop-opacity="0"/></linearGradient><linearGradient id="linear-gradient-3" x1="899.38" y1="1207" x2="899.38" y2="1194.83" gradientTransform="matrix(0, -1, -1, 0, 1453.06, 1410.28)" gradientUnits="userSpaceOnUse"><stop offset="0.23" stop-color="#77787b" stop-opacity="0.3"/><stop offset="0.44" stop-color="#97989a" stop-opacity="0.22"/><stop offset="0.88" stop-color="#e9e9e9" stop-opacity="0.05"/><stop offset="1" stop-color="#fff" stop-opacity="0"/></linearGradient><linearGradient id="linear-gradient-4" x1="799.11" y1="-117.52" x2="-96.31" y2="633.82" gradientTransform="matrix(1, 0, 0, -1, 0.02, 748.6)" gradientUnits="userSpaceOnUse"><stop offset="0.06" stop-opacity="0.6"/><stop offset="0.08" stop-color="#141414" stop-opacity="0.59"/><stop offset="0.14" stop-color="#454545" stop-opacity="0.55"/><stop offset="0.19" stop-color="#717171" stop-opacity="0.51"/><stop offset="0.25" stop-color="#989898" stop-opacity="0.48"/><stop offset="0.32" stop-color="#b8b8b8" stop-opacity="0.43"/><stop offset="0.39" stop-color="#d2d2d2" stop-opacity="0.39"/><stop offset="0.46" stop-color="#e6e6e6" stop-opacity="0.34"/><stop offset="0.55" stop-color="#f4f4f4" stop-opacity="0.28"/><stop offset="0.66" stop-color="#fcfcfc" stop-opacity="0.22"/><stop offset="0.83" stop-color="#fff" stop-opacity="0.1"/><stop offset="0.84" stop-color="#f1f1f1" stop-opacity="0.1"/><stop offset="0.92" stop-color="#717171" stop-opacity="0.1"/><stop offset="0.97" stop-color="#202020" stop-opacity="0.1"/><stop offset="0.99" stop-opacity="0.1"/></linearGradient></defs><g id="door"><polyline class="cls-1" points="656.02 980.9 246.03 980.9 246.03 40.9 656.02 40.9 656.02 980.9"/></g><g id="frame"><polygon class="cls-2" points="702.83 0 670.52 0 655.92 0 246.03 0 216.03 0 0.03 0 0.03 980.9 199.03 980.9 199.03 980.9 246.13 980.9 246.13 40.9 655.92 40.9 655.92 980.9 702.83 980.9 702.83 616.3 702.83 0"/><polygon class="cls-3" points="656.02 40.9 656.02 980.9 636.83 980.9 636.83 40.9 656.02 40.9"/><polygon class="cls-4" points="246.03 40.9 656.02 40.9 656.02 60.2 246.03 60.2 246.03 40.9"/><polygon class="cls-5" points="246.03 980.9 246.03 40.9 258.23 40.9 258.23 980.9 246.03 980.9"/><rect class="cls-6" x="656.22" y="40.9" width="3" height="940"/><rect class="cls-7" x="243.02" y="40.9" width="3" height="940"/><rect class="cls-8" x="656.12" y="979.97" width="46.6" height="1"/><rect class="cls-1" x="700.82" width="2" height="979.9"/><rect class="cls-6" x="0.02" y="1.9" width="3" height="979"/><rect class="cls-8" y="979.97" width="246" height="1"/><polygon class="cls-9" points="202.93 42.9 42.52 42.9 46.52 46.9 198.93 46.9 202.93 42.9"/><polygon class="cls-8" points="196.93 48.9 48.52 48.9 46.52 46.9 198.93 46.9 196.93 48.9"/><polygon class="cls-9" points="196.93 48.9 48.52 48.9 51.52 51.9 193.93 51.9 196.93 48.9"/><polygon class="cls-10" points="51.52 51.9 193.93 51.9 191.93 53.9 53.52 53.9 51.52 51.9"/><polygon class="cls-11" points="202.93 42.9 42.52 42.9 40.52 40.9 204.93 40.9 202.93 42.9"/><polygon class="cls-8" points="42.52 937.9 202.93 937.9 198.93 933.9 46.52 933.9 42.52 937.9"/><polygon class="cls-12" points="48.52 931.9 196.93 931.9 198.93 933.9 46.52 933.9 48.52 931.9"/><polygon class="cls-13" points="48.52 931.9 196.93 931.9 193.93 928.9 51.52 928.9 48.52 931.9"/><polygon class="cls-10" points="193.93 928.9 51.52 928.9 53.52 926.9 191.93 926.9 193.93 928.9"/><polygon class="cls-12" points="42.52 937.9 202.93 937.9 204.93 939.9 40.52 939.9 42.52 937.9"/><polygon class="cls-8" points="42.52 42.9 42.52 937.9 46.52 933.9 46.52 46.9 42.52 42.9"/><polygon class="cls-12" points="48.52 48.9 48.52 931.9 46.52 933.9 46.52 46.9 48.52 48.9"/><polygon class="cls-14" points="48.52 48.9 48.52 931.9 51.52 928.9 51.52 51.9 48.52 48.9"/><polygon class="cls-10" points="51.52 928.9 51.52 51.9 53.52 53.9 53.52 926.9 51.52 928.9"/><polygon class="cls-11" points="42.52 42.9 42.52 937.9 40.52 939.9 40.52 40.9 42.52 42.9"/><polygon class="cls-15" points="202.93 937.9 202.93 42.9 198.93 46.9 198.93 933.9 202.93 937.9"/><polygon class="cls-8" points="196.93 931.9 196.93 48.9 198.93 46.9 198.93 933.9 196.93 931.9"/><polygon class="cls-14" points="196.93 931.9 196.93 48.9 193.93 51.9 193.93 928.9 196.93 931.9"/><polygon class="cls-10" points="193.93 51.9 193.93 928.9 191.93 926.9 191.93 53.9 193.93 51.9"/><polygon class="cls-12" points="202.93 937.9 202.93 42.9 204.93 40.9 204.93 939.9 202.93 937.9"/><rect class="cls-16" x="0.06" y="0.04" width="702.8" height="1.9"/></g><g id="joins" class="cls-17"><rect class="cls-8" x="238.83" y="33.42" width="1" height="9.3" transform="translate(43.21 180.38) rotate(-45)"/><rect class="cls-12" x="211.57" y="34.37" width="24.9" height="1"/><rect class="cls-16" x="203.84" y="37.51" width="9.3" height="1" transform="translate(34.22 158.56) rotate(-45)"/><rect class="cls-8" x="693.32" y="33.41" width="1" height="9.3" transform="translate(176.33 501.75) rotate(-45)"/><rect class="cls-12" x="666.05" y="34.38" width="24.9" height="1"/><rect class="cls-16" x="658.33" y="37.52" width="9.3" height="1" transform="translate(167.33 479.93) rotate(-45)"/><rect class="cls-8" x="36.93" y="33.41" width="1" height="9.3" transform="translate(-15.93 37.62) rotate(-45)"/><rect class="cls-12" x="9.66" y="34.37" width="24.9" height="1"/><rect class="cls-16" x="1.94" y="37.51" width="9.3" height="1" transform="translate(-24.92 15.79) rotate(-45)"/><rect class="cls-8" x="234.67" y="941.02" width="9.3" height="1" transform="translate(-595.63 444.99) rotate(-45)"/><rect class="cls-12" x="211.49" y="944.21" width="24.9" height="1"/><rect class="cls-16" x="208" y="936.93" width="1" height="9.3" transform="translate(-604.7 423.21) rotate(-45)"/><rect class="cls-8" x="32.77" y="941.02" width="9.3" height="1" transform="translate(-654.77 302.23) rotate(-45)"/><rect class="cls-12" x="9.59" y="944.21" width="24.9" height="1"/><rect class="cls-16" x="6.1" y="936.92" width="1" height="9.3" transform="translate(-663.84 280.44) rotate(-45)"/></g><g id="frame_colour"><polygon style="mix-blend-mode:multiply;" class="cls-1" points="702.83 0 0.03 0 0.03 980.9 197.03 980.9 197.03 980.9 246.13 980.9 246.13 40.9 655.92 40.9 655.92 980.9 702.83 980.9 702.83 616.3 702.83 0"/></g><g id="gradient"><polygon class="cls-18" points="702.83 0 0.03 0 0.03 980.9 197.03 980.9 197.03 980.9 246.13 980.9 246.13 40.9 655.92 40.9 655.92 980.9 702.83 980.9 702.83 616.3 702.83 0"/></g><g id="left_glass"><rect class="cls-1" x="53.52" y="53.9" width="138.4" height="873"/></g></svg>